<svg data-v-423bf9ae="" xmlns="http://www.w3.org/2000/svg" viewBox="0 0 420 90" class="iconLeft"><!----><!----><!----><g data-v-423bf9ae="" id="d4240eda-1b7a-4bd0-ab89-1fa851664067" fill="white" transform="matrix(5.459508284166465,0,0,5.459508284166465,108.91320126434155,7.356688413122477)"><path d="M9.39 4.68Q9.69 4.68 9.84 4.83Q9.98 4.98 9.98 5.25L9.98 5.25Q9.98 5.47 9.91 5.66L9.91 5.66L7.84 11.87Q7.77 12.07 7.59 12.20Q7.41 12.33 7.18 12.33L7.18 12.33Q6.94 12.33 6.75 12.20Q6.57 12.07 6.51 11.87L6.51 11.87L5.14 6.79L3.70 11.87Q3.63 12.07 3.44 12.20Q3.25 12.33 3.02 12.33L3.02 12.33Q2.80 12.33 2.61 12.20Q2.42 12.07 2.35 11.87L2.35 11.87L0.28 5.66Q0.22 5.47 0.22 5.26L0.22 5.26Q0.22 4.68 0.81 4.68L0.81 4.68Q1.08 4.68 1.25 4.83Q1.43 4.98 1.54 5.32L1.54 5.32L3.05 10.04L4.48 5.21Q4.55 4.97 4.73 4.82Q4.90 4.68 5.18 4.68L5.18 4.68Q5.45 4.68 5.62 4.82Q5.80 4.97 5.87 5.21L5.87 5.21L7.13 10.14L8.67 5.32Q8.86 4.68 9.39 4.68L9.39 4.68ZM18.05 8.39Q18.05 8.65 17.86 8.83Q17.68 9.00 17.40 9.00L17.40 9.00L12.08 9.00Q12.24 9.98 12.97 10.58Q13.71 11.19 14.77 11.19L14.77 11.19Q15.19 11.19 15.65 11.03Q16.10 10.88 16.39 10.65L16.39 10.65Q16.59 10.50 16.86 10.50L16.86 10.50Q17.12 10.50 17.28 10.64L17.28 10.64Q17.53 10.85 17.53 11.12L17.53 11.12Q17.53 11.37 17.30 11.54L17.30 11.54Q16.83 11.91 16.12 12.15Q15.41 12.39 14.77 12.39L14.77 12.39Q13.62 12.39 12.71 11.89Q11.80 11.40 11.29 10.51Q10.78 9.63 10.78 8.51L10.78 8.51Q10.78 7.39 11.26 6.50Q11.75 5.61 12.61 5.12Q13.47 4.62 14.56 4.62L14.56 4.62Q15.64 4.62 16.42 5.10Q17.21 5.57 17.63 6.43Q18.05 7.28 18.05 8.39L18.05 8.39ZM14.56 5.82Q13.54 5.82 12.90 6.38Q12.26 6.94 12.10 7.88L12.10 7.88L16.76 7.88Q16.63 6.94 16.06 6.38Q15.48 5.82 14.56 5.82L14.56 5.82ZM20.58 1.40Q20.26 1.40 20.06 1.60Q19.87 1.79 19.87 2.11L19.87 2.11L19.87 8.50Q19.87 9.59 20.38 10.48Q20.89 11.37 21.76 11.88Q22.64 12.39 23.72 12.39L23.72 12.39Q24.79 12.39 25.68 11.88Q26.57 11.37 27.08 10.48Q27.58 9.59 27.58 8.50L27.58 8.50Q27.58 7.41 27.11 6.52Q26.64 5.63 25.82 5.12Q25.00 4.62 24.00 4.62L24.00 4.62Q23.18 4.62 22.48 4.96Q21.78 5.29 21.29 5.89L21.29 5.89L21.29 2.11Q21.29 1.79 21.09 1.60Q20.89 1.40 20.58 1.40L20.58 1.40ZM23.72 11.13Q23.02 11.13 22.45 10.79Q21.88 10.44 21.56 9.84Q21.24 9.24 21.24 8.50L21.24 8.50Q21.24 7.76 21.56 7.16Q21.88 6.57 22.45 6.22Q23.02 5.88 23.72 5.88L23.72 5.88Q24.42 5.88 24.98 6.22Q25.55 6.57 25.88 7.16Q26.21 7.76 26.21 8.50L26.21 8.50Q26.21 9.24 25.88 9.84Q25.55 10.44 24.98 10.79Q24.42 11.13 23.72 11.13L23.72 11.13ZM33.46 4.59Q34.20 4.59 34.62 4.82Q35.04 5.04 35.04 5.38L35.04 5.38Q35.04 5.47 35.03 5.52L35.03 5.52Q34.90 5.96 34.47 5.96L34.47 5.96Q34.40 5.96 34.26 5.94L34.26 5.94Q33.70 5.84 33.35 5.84L33.35 5.84Q32.34 5.84 31.72 6.30Q31.11 6.76 31.11 7.55L31.11 7.55L31.11 11.63Q31.11 11.97 30.93 12.15Q30.76 12.33 30.41 12.33L30.41 12.33Q30.07 12.33 29.89 12.16Q29.71 11.98 29.71 11.63L29.71 11.63L29.71 5.38Q29.71 5.04 29.89 4.86Q30.07 4.68 30.41 4.68L30.41 4.68Q31.11 4.68 31.11 5.38L31.11 5.38L31.11 5.64Q31.53 5.15 32.14 4.87Q32.76 4.59 33.46 4.59L33.46 4.59ZM39.42 4.62Q40.50 4.62 41.38 5.13Q42.25 5.64 42.76 6.53Q43.27 7.42 43.27 8.51L43.27 8.51L43.27 11.63Q43.27 11.94 43.07 12.14Q42.87 12.35 42.56 12.35L42.56 12.35Q42.25 12.35 42.05 12.14Q41.85 11.94 41.85 11.63L41.85 11.63L41.85 11.12Q41.36 11.72 40.66 12.05Q39.96 12.39 39.14 12.39L39.14 12.39Q38.14 12.39 37.32 11.89Q36.50 11.38 36.03 10.49Q35.56 9.60 35.56 8.51L35.56 8.51Q35.56 7.42 36.06 6.53Q36.57 5.64 37.46 5.13Q38.35 4.62 39.42 4.62L39.42 4.62ZM39.42 11.13Q40.12 11.13 40.69 10.79Q41.26 10.44 41.58 9.85Q41.90 9.25 41.90 8.51L41.90 8.51Q41.90 7.77 41.58 7.17Q41.26 6.57 40.69 6.22Q40.12 5.88 39.42 5.88L39.42 5.88Q38.72 5.88 38.16 6.22Q37.59 6.57 37.26 7.17Q36.93 7.77 36.93 8.51L36.93 8.51Q36.93 9.25 37.26 9.85Q37.59 10.44 38.16 10.79Q38.72 11.13 39.42 11.13L39.42 11.13ZM45.54 5.39Q45.54 5.07 45.75 4.87Q45.95 4.68 46.26 4.68L46.26 4.68Q46.58 4.68 46.77 4.87Q46.97 5.07 46.97 5.39L46.97 5.39L46.97 11.62Q46.97 11.93 46.77 12.13Q46.58 12.33 46.26 12.33L46.26 12.33Q45.95 12.33 45.75 12.13Q45.54 11.93 45.54 11.62L45.54 11.62L45.54 5.39ZM46.26 1.58Q46.63 1.58 46.91 1.85Q47.18 2.13 47.18 2.51L47.18 2.51Q47.18 2.88 46.91 3.16Q46.63 3.43 46.26 3.43L46.26 3.43Q45.88 3.43 45.61 3.16Q45.33 2.88 45.33 2.51L45.33 2.51Q45.33 2.13 45.61 1.85Q45.88 1.58 46.26 1.58L46.26 1.58ZM53.44 4.61Q54.40 4.61 55.17 5.03Q55.94 5.45 56.38 6.25Q56.81 7.06 56.81 8.19L56.81 8.19L56.81 11.63Q56.81 11.94 56.61 12.14Q56.41 12.35 56.10 12.35L56.10 12.35Q55.79 12.35 55.59 12.14Q55.38 11.94 55.38 11.63L55.38 11.63L55.38 8.19Q55.38 7.06 54.78 6.47Q54.17 5.89 53.16 5.89L53.16 5.89Q52.57 5.89 52.09 6.13Q51.60 6.37 51.33 6.78Q51.06 7.18 51.06 7.69L51.06 7.69L51.06 11.63Q51.06 11.94 50.86 12.14Q50.67 12.35 50.34 12.35L50.34 12.35Q50.04 12.35 49.83 12.14Q49.63 11.94 49.63 11.63L49.63 11.63L49.63 5.39Q49.63 5.07 49.83 4.87Q50.04 4.68 50.34 4.68L50.34 4.68Q50.67 4.68 50.86 4.87Q51.06 5.07 51.06 5.39L51.06 5.39L51.06 5.54Q51.51 5.10 52.12 4.85Q52.74 4.61 53.44 4.61L53.44 4.61Z"></path></g><!----><g data-v-423bf9ae="" id="3a98a4f8-65d9-4bcf-9460-595a5f1b34b0" transform="matrix(1.1428833844248074,0,0,1.1428833844248074,-11.564825883172993,-11.514563520616)" stroke="none" fill="white"><path d="M80 70.6c-3.8 0-7.2 2.3-8.7 5.8-1.5 3.5-.7 7.5 2 10.2 2.7 2.7 6.7 3.5 10.2 2 3.5-1.5 5.8-4.9 5.8-8.7 0-2.5-1-4.9-2.7-6.6-1.7-1.7-4.1-2.7-6.6-2.7zm0 17.8c-3.4 0-6.5-2.1-7.8-5.2-1.3-3.2-.6-6.8 1.8-9.2 2.4-2.4 6-3.1 9.2-1.8 3.2 1.3 5.2 4.4 5.2 7.8 0 4.7-3.7 8.4-8.4 8.4zM80.5 40.6V29.3c1.1-.1 2.1-.3 3.1-.7 3.5-1.4 5.8-4.9 5.8-8.7 0-2.5-1-4.9-2.7-6.6-1.8-1.8-4.1-2.7-6.6-2.7-3.8 0-7.2 2.3-8.7 5.8-1.5 3.5-.7 7.5 2 10.2 1.7 1.7 3.9 2.6 6.2 2.7v11.3c-3.6.2-6.8 2.4-8.2 5.8-1.5 3.5-.7 7.5 2 10.2 2.7 2.7 6.7 3.5 10.2 2 3.5-1.5 5.8-4.9 5.8-8.7 0-2.5-1-4.9-2.7-6.6-1.7-1.6-3.9-2.5-6.2-2.7zm-8.3-17.4c-1.3-3.2-.6-6.8 1.8-9.2 2.4-2.4 6-3.1 9.2-1.8 3.2 1.3 5.2 4.4 5.2 7.8 0 4.7-3.8 8.4-8.4 8.4-3.4 0-6.5-2-7.8-5.2zM80 58.4c-3.4 0-6.5-2.1-7.8-5.2-1.3-3.1-.6-6.8 1.8-9.2 2.4-2.4 6-3.1 9.2-1.8 3.2 1.3 5.2 4.4 5.2 7.8 0 4.7-3.7 8.4-8.4 8.4zM29.4 19.5v.5c0-2.5-1-4.9-2.7-6.6-1.8-1.8-4.1-2.7-6.6-2.7-3.8 0-7.2 2.3-8.7 5.8-1.5 3.5-.7 7.5 2 10.2 2.7 2.7 6.7 3.5 10.2 2 3.5-1.4 5.8-4.9 5.8-8.7v.5h11.3v-.9l-11.3-.1zM20 28.4c-3.4 0-6.5-2.1-7.8-5.2-1.3-3.2-.6-6.8 1.8-9.2 2.4-2.4 6-3.1 9.2-1.8 3.2 1.3 5.2 4.4 5.2 7.8 0 4.7-3.7 8.4-8.4 8.4z"></path><path d="M50.5 29.3c1.1-.1 2.1-.3 3.1-.7 3.5-1.4 5.8-4.9 5.8-8.7 0-2.5-1-4.9-2.7-6.6-1.8-1.8-4.1-2.7-6.6-2.7-3.8 0-7.2 2.3-8.7 5.8-1.4 3.5-.6 7.5 2 10.2 1.7 1.7 3.9 2.6 6.2 2.7v11.3h.4c-3.8 0-7.2 2.3-8.7 5.8-1.4 3.5-.6 7.5 2 10.2 1.7 1.7 3.9 2.6 6.2 2.7v11.3h.5c-3.8 0-7.2 2.3-8.7 5.8-1.4 3.5-.6 7.5 2 10.2 2.7 2.7 6.7 3.5 10.2 2 3.5-1.5 5.8-4.9 5.8-8.7 0-2.5-1-4.9-2.7-6.6-1.8-1.8-4.1-2.7-6.6-2.7h.5V59.3c1.1-.1 2.1-.3 3.1-.7 3.5-1.5 5.8-4.9 5.8-8.7 0-2.5-1-4.9-2.7-6.6-1.8-1.8-4.1-2.7-6.6-2.7h.5V29.3zm-8.3-6.1c-1.3-3.2-.6-6.8 1.8-9.2 2.4-2.4 6-3.1 9.2-1.8 3.2 1.3 5.2 4.4 5.2 7.8 0 4.7-3.8 8.4-8.4 8.4-3.4 0-6.5-2-7.8-5.2zM58.4 80c0 4.7-3.8 8.4-8.4 8.4-3.4 0-6.5-2.1-7.8-5.2-1.3-3.2-.6-6.8 1.8-9.2 2.4-2.4 6-3.1 9.2-1.8 3.2 1.3 5.2 4.4 5.2 7.8zm0-30c0 4.7-3.8 8.4-8.4 8.4-3.4 0-6.5-2.1-7.8-5.2-1.3-3.1-.6-6.8 1.8-9.2 2.4-2.4 6-3.1 9.2-1.8 3.2 1.3 5.2 4.4 5.2 7.8zM59.4 79.5h11.2v.9H59.4zM20.5 59.3c1.1-.1 2.1-.3 3.1-.7 3.5-1.5 5.8-4.9 5.8-8.7 0-2.5-1-4.9-2.7-6.6-1.8-1.8-4.1-2.7-6.6-2.7-3.8 0-7.2 2.3-8.7 5.8-1.5 3.5-.7 7.5 2 10.2 1.7 1.7 3.9 2.6 6.2 2.7v11.3h.4c-3.8 0-7.2 2.3-8.7 5.8-1.5 3.5-.7 7.5 2 10.2 2.7 2.7 6.7 3.5 10.2 2 3.5-1.5 5.8-4.9 5.8-8.7 0-2.5-1-4.9-2.7-6.6-1.8-1.8-4.1-2.7-6.6-2.7h.5V59.3zm-8.3-6.1c-1.3-3.1-.6-6.8 1.8-9.2 2.4-2.4 6-3.1 9.2-1.8 3.2 1.3 5.2 4.4 5.2 7.8 0 4.7-3.8 8.4-8.4 8.4-3.4 0-6.5-2-7.8-5.2zM28.4 80c0 4.7-3.8 8.4-8.4 8.4-3.4 0-6.5-2.1-7.8-5.2-1.3-3.2-.6-6.8 1.8-9.2 2.4-2.4 6-3.1 9.2-1.8 3.2 1.3 5.2 4.4 5.2 7.8z"></path></g><!----></svg>