<svg data-v-fde0c5aa="" xmlns="http://www.w3.org/2000/svg" viewBox="0 0 300 300" class="iconLeft"><!----><defs data-v-fde0c5aa=""><!----></defs><rect data-v-fde0c5aa="" fill="#FFFFFF" x="0" y="0" width="300px" height="300px" class="logo-background-square"></rect><defs data-v-fde0c5aa=""><!----></defs><g data-v-fde0c5aa="" id="45d22a31-cafe-4c14-b39e-9f87d6354794" fill="#08403F" transform="matrix(3.258537104979255,0,0,3.258537104979255,104.86104891943977,123.26370330225187)"><path d="M3.57 13.43L5.18 8.22L6.79 13.43L8.16 13.43L10.16 6.75L8.88 6.75L7.39 12.21L5.80 6.75L4.58 6.75L2.97 12.24L1.50 6.75L0.20 6.75L2.21 13.43ZM13.94 6.61C12.00 6.61 10.84 7.74 10.84 9.95C10.84 12.33 12.25 13.57 14.49 13.57C15.25 13.57 16.07 13.44 16.70 13.19L16.70 12.15C15.92 12.40 15.05 12.52 14.46 12.52C13.05 12.52 12.22 11.84 12.07 10.40L16.81 10.40L16.81 9.83C16.81 7.71 15.78 6.61 13.94 6.61ZM13.93 7.56C15.02 7.56 15.57 8.40 15.57 9.53L12.05 9.53C12.17 8.18 12.89 7.56 13.93 7.56ZM18.28 2.84L18.28 13.01L18.30 13.01L18.30 13.15C19.01 13.43 20.12 13.57 20.90 13.57C23.17 13.57 24.39 12.24 24.39 9.76C24.39 7.48 23.31 6.61 21.87 6.61C20.80 6.61 20.03 7.08 19.56 8.19L19.56 2.84ZM21.59 7.66C22.51 7.66 23.11 8.25 23.11 9.83C23.11 11.68 22.30 12.59 20.86 12.59C20.45 12.59 20.02 12.54 19.56 12.45C19.59 8.37 20.62 7.66 21.59 7.66ZM27.16 13.43L27.16 13.02C27.16 9.24 28.31 7.77 29.60 7.77C29.81 7.77 29.99 7.78 30.14 7.83L30.14 6.66C29.96 6.62 29.81 6.61 29.55 6.61C28.34 6.61 27.57 7.62 27.13 9.09L27.10 6.75L25.89 6.75L25.89 13.43ZM36.71 13.43C36.58 12.78 36.55 11.63 36.55 10.57L36.55 7.22L36.54 7.22L36.54 7.03C35.83 6.75 34.72 6.61 33.94 6.61C31.67 6.61 30.45 7.94 30.45 10.42C30.45 12.70 31.53 13.57 32.98 13.57C34.06 13.57 34.85 13.08 35.32 11.89C35.35 12.38 35.41 12.87 35.50 13.43ZM33.25 12.52C32.33 12.52 31.74 11.93 31.74 10.35C31.74 8.50 32.54 7.59 33.98 7.59C34.37 7.59 34.82 7.64 35.28 7.73L35.28 7.88C35.22 11.83 34.20 12.52 33.25 12.52ZM38.37 3.72L38.37 5.10L39.65 5.10L39.65 3.72ZM38.37 6.75L38.37 11.56C38.37 12.85 38.85 13.47 40.19 13.47C40.35 13.47 40.49 13.45 40.64 13.44L40.64 12.43C40.50 12.46 40.40 12.46 40.28 12.46C39.80 12.46 39.65 12.14 39.65 11.54L39.65 6.75ZM43.06 13.43L43.06 12.82C43.09 10.15 43.82 7.66 45.40 7.66C46.07 7.66 46.37 8.13 46.37 9.31L46.37 13.43L47.61 13.43L47.61 8.90C47.61 7.46 47.11 6.61 45.81 6.61C44.42 6.61 43.54 7.41 43.04 8.85L43.01 6.75L41.79 6.75L41.79 13.43Z"></path></g><defs data-v-fde0c5aa=""><!----></defs><g data-v-fde0c5aa="" id="598b1d91-d47f-4e46-9aed-3ccc30d014d3" stroke="none" fill="#08403F" transform="matrix(0.6659981803527951,0,0,0.6659981803527951,32.9725141995022,116.71734470604768)"><path d="M80 70.6c-3.8 0-7.2 2.3-8.7 5.8-1.5 3.5-.7 7.5 2 10.2 2.7 2.7 6.7 3.5 10.2 2 3.5-1.5 5.8-4.9 5.8-8.7 0-2.5-1-4.9-2.7-6.6-1.7-1.7-4.1-2.7-6.6-2.7zm0 17.8c-3.4 0-6.5-2.1-7.8-5.2-1.3-3.2-.6-6.8 1.8-9.2 2.4-2.4 6-3.1 9.2-1.8 3.2 1.3 5.2 4.4 5.2 7.8 0 4.7-3.7 8.4-8.4 8.4zM80.5 40.6V29.3c1.1-.1 2.1-.3 3.1-.7 3.5-1.4 5.8-4.9 5.8-8.7 0-2.5-1-4.9-2.7-6.6-1.8-1.8-4.1-2.7-6.6-2.7-3.8 0-7.2 2.3-8.7 5.8-1.5 3.5-.7 7.5 2 10.2 1.7 1.7 3.9 2.6 6.2 2.7v11.3c-3.6.2-6.8 2.4-8.2 5.8-1.5 3.5-.7 7.5 2 10.2 2.7 2.7 6.7 3.5 10.2 2 3.5-1.5 5.8-4.9 5.8-8.7 0-2.5-1-4.9-2.7-6.6-1.7-1.6-3.9-2.5-6.2-2.7zm-8.3-17.4c-1.3-3.2-.6-6.8 1.8-9.2 2.4-2.4 6-3.1 9.2-1.8 3.2 1.3 5.2 4.4 5.2 7.8 0 4.7-3.8 8.4-8.4 8.4-3.4 0-6.5-2-7.8-5.2zM80 58.4c-3.4 0-6.5-2.1-7.8-5.2-1.3-3.1-.6-6.8 1.8-9.2 2.4-2.4 6-3.1 9.2-1.8 3.2 1.3 5.2 4.4 5.2 7.8 0 4.7-3.7 8.4-8.4 8.4zM29.4 19.5v.5c0-2.5-1-4.9-2.7-6.6-1.8-1.8-4.1-2.7-6.6-2.7-3.8 0-7.2 2.3-8.7 5.8-1.5 3.5-.7 7.5 2 10.2 2.7 2.7 6.7 3.5 10.2 2 3.5-1.4 5.8-4.9 5.8-8.7v.5h11.3v-.9l-11.3-.1zM20 28.4c-3.4 0-6.5-2.1-7.8-5.2-1.3-3.2-.6-6.8 1.8-9.2 2.4-2.4 6-3.1 9.2-1.8 3.2 1.3 5.2 4.4 5.2 7.8 0 4.7-3.7 8.4-8.4 8.4z"></path><path d="M50.5 29.3c1.1-.1 2.1-.3 3.1-.7 3.5-1.4 5.8-4.9 5.8-8.7 0-2.5-1-4.9-2.7-6.6-1.8-1.8-4.1-2.7-6.6-2.7-3.8 0-7.2 2.3-8.7 5.8-1.4 3.5-.6 7.5 2 10.2 1.7 1.7 3.9 2.6 6.2 2.7v11.3h.4c-3.8 0-7.2 2.3-8.7 5.8-1.4 3.5-.6 7.5 2 10.2 1.7 1.7 3.9 2.6 6.2 2.7v11.3h.5c-3.8 0-7.2 2.3-8.7 5.8-1.4 3.5-.6 7.5 2 10.2 2.7 2.7 6.7 3.5 10.2 2 3.5-1.5 5.8-4.9 5.8-8.7 0-2.5-1-4.9-2.7-6.6-1.8-1.8-4.1-2.7-6.6-2.7h.5V59.3c1.1-.1 2.1-.3 3.1-.7 3.5-1.5 5.8-4.9 5.8-8.7 0-2.5-1-4.9-2.7-6.6-1.8-1.8-4.1-2.7-6.6-2.7h.5V29.3zm-8.3-6.1c-1.3-3.2-.6-6.8 1.8-9.2 2.4-2.4 6-3.1 9.2-1.8 3.2 1.3 5.2 4.4 5.2 7.8 0 4.7-3.8 8.4-8.4 8.4-3.4 0-6.5-2-7.8-5.2zM58.4 80c0 4.7-3.8 8.4-8.4 8.4-3.4 0-6.5-2.1-7.8-5.2-1.3-3.2-.6-6.8 1.8-9.2 2.4-2.4 6-3.1 9.2-1.8 3.2 1.3 5.2 4.4 5.2 7.8zm0-30c0 4.7-3.8 8.4-8.4 8.4-3.4 0-6.5-2.1-7.8-5.2-1.3-3.1-.6-6.8 1.8-9.2 2.4-2.4 6-3.1 9.2-1.8 3.2 1.3 5.2 4.4 5.2 7.8zM59.4 79.5h11.2v.9H59.4zM20.5 59.3c1.1-.1 2.1-.3 3.1-.7 3.5-1.5 5.8-4.9 5.8-8.7 0-2.5-1-4.9-2.7-6.6-1.8-1.8-4.1-2.7-6.6-2.7-3.8 0-7.2 2.3-8.7 5.8-1.5 3.5-.7 7.5 2 10.2 1.7 1.7 3.9 2.6 6.2 2.7v11.3h.4c-3.8 0-7.2 2.3-8.7 5.8-1.5 3.5-.7 7.5 2 10.2 2.7 2.7 6.7 3.5 10.2 2 3.5-1.5 5.8-4.9 5.8-8.7 0-2.5-1-4.9-2.7-6.6-1.8-1.8-4.1-2.7-6.6-2.7h.5V59.3zm-8.3-6.1c-1.3-3.1-.6-6.8 1.8-9.2 2.4-2.4 6-3.1 9.2-1.8 3.2 1.3 5.2 4.4 5.2 7.8 0 4.7-3.8 8.4-8.4 8.4-3.4 0-6.5-2-7.8-5.2zM28.4 80c0 4.7-3.8 8.4-8.4 8.4-3.4 0-6.5-2.1-7.8-5.2-1.3-3.2-.6-6.8 1.8-9.2 2.4-2.4 6-3.1 9.2-1.8 3.2 1.3 5.2 4.4 5.2 7.8z"></path></g><!----></svg>