<?xml version="1.0" encoding="utf-8"?>
<!-- Generator: Adobe Illustrator 27.5.0, SVG Export Plug-In . SVG Version: 6.00 Build 0)  -->
<svg version="1.1" xmlns="http://www.w3.org/2000/svg" xmlns:xlink="http://www.w3.org/1999/xlink" x="0px" y="0px"
	 viewBox="0 0 500 500" style="enable-background:new 0 0 500 500;" xml:space="preserve">
<g id="Background_Simple">
	<g>
		<path style="fill:#92E3A9;" d="M28.098,282.637c0,0,19.205,78.361,97.012,119.656c77.808,41.295,171.063,29.504,246.967,21.903
			c75.905-7.601,124.584-59.042,119.926-123.642c-4.658-64.599-65.766-73.514-111.964-140.17
			c-46.198-66.656-48.422-90.746-123.412-123.908C181.638,3.314,84.649,47.735,46.775,132.527
			C8.901,217.318,28.098,282.637,28.098,282.637z"/>
		<path style="opacity:0.7;fill:#FFFFFF;" d="M28.098,282.637c0,0,19.205,78.361,97.012,119.656
			c77.808,41.295,171.063,29.504,246.967,21.903c75.905-7.601,124.584-59.042,119.926-123.642
			c-4.658-64.599-65.766-73.514-111.964-140.17c-46.198-66.656-48.422-90.746-123.412-123.908
			C181.638,3.314,84.649,47.735,46.775,132.527C8.901,217.318,28.098,282.637,28.098,282.637z"/>
	</g>
</g>
<g id="Wall">
	<g>
		<line style="fill:none;stroke:#263238;stroke-miterlimit:10;" x1="65.666" y1="66.67" x2="65.666" y2="416.828"/>
		<line style="fill:none;stroke:#263238;stroke-miterlimit:10;" x1="65.666" y1="53.168" x2="65.666" y2="59.874"/>
		<line style="fill:none;stroke:#263238;stroke-miterlimit:10;" x1="193.179" y1="53.168" x2="193.179" y2="416.828"/>
		<line style="fill:none;stroke:#263238;stroke-miterlimit:10;" x1="320.692" y1="53.168" x2="320.692" y2="416.828"/>
		<line style="fill:none;stroke:#263238;stroke-miterlimit:10;" x1="448.205" y1="105.022" x2="448.205" y2="416.828"/>
		<line style="fill:none;stroke:#263238;stroke-miterlimit:10;" x1="448.205" y1="53.168" x2="448.205" y2="96.283"/>
	</g>
</g>
<g id="Board">
	<g>
		<rect x="88.821" y="102.865" style="fill:#263238;" width="291.993" height="173.049"/>
		
			<rect x="90.474" y="107.786" style="fill:#FFFFFF;stroke:#263238;stroke-linecap:round;stroke-linejoin:round;stroke-miterlimit:10;" width="288.688" height="163.207"/>
		<rect x="85.494" y="99.908" style="fill:#263238;" width="296.957" height="9.28"/>
		
			<circle style="fill:#FFFFFF;stroke:#263238;stroke-linecap:round;stroke-linejoin:round;stroke-miterlimit:10;" cx="238.093" cy="91.434" r="8.348"/>
		<path style="fill:#92E3A9;stroke:#263238;stroke-miterlimit:10;" d="M242.487,91.434c0,2.427-1.967,4.394-4.394,4.394
			s-4.394-1.967-4.394-4.394s1.967-4.394,4.394-4.394S242.487,89.007,242.487,91.434z"/>
	</g>
</g>
<g id="Graphics">
	<g>
		<polyline style="fill:none;stroke:#263238;stroke-miterlimit:10;" points="142.888,213.781 107.212,213.781 107.212,177.597 
			167.89,177.597 167.89,213.781 149.684,213.781 		"/>
		<rect x="155.086" y="231.105" style="fill:none;stroke:#263238;stroke-miterlimit:10;" width="48.431" height="28.881"/>
		<polyline style="fill:none;stroke:#263238;stroke-miterlimit:10;" points="256.971,177.597 263.081,177.597 263.081,213.781 
			202.403,213.781 202.403,177.597 251.145,177.597 		"/>
		<polyline style="fill:none;stroke:#263238;stroke-miterlimit:10;" points="207.454,124.713 278.668,124.713 278.668,160.897 
			186.816,160.897 186.816,124.713 200.657,124.713 		"/>
		<rect x="297.038" y="177.597" style="fill:none;stroke:#263238;stroke-miterlimit:10;" width="60.677" height="36.184"/>
		<path style="fill:none;stroke:#263238;stroke-miterlimit:10;" d="M181.806,142.527c0,0-32.194,4.478-51.121,31.755"/>
		<line style="fill:none;stroke:#263238;stroke-miterlimit:10;" x1="161.21" y1="217.678" x2="165.472" y2="230.116"/>
		<line style="fill:none;stroke:#263238;stroke-miterlimit:10;" x1="205.187" y1="216.565" x2="201.29" y2="228.255"/>
		<polyline style="fill:none;stroke:#263238;stroke-miterlimit:10;" points="160.795,226.023 165.472,230.116 166.641,224.561 		"/>
		<polyline style="fill:none;stroke:#263238;stroke-miterlimit:10;" points="199.381,224.561 201.135,229.239 206.105,226.315 		"/>
		<polyline style="fill:none;stroke:#263238;stroke-miterlimit:10;" points="131.562,168.728 130.686,174.282 136.824,170.482 		"/>
		<g>
			<line style="fill:none;stroke:#263238;stroke-miterlimit:10;" x1="264.862" y1="194.745" x2="295.263" y2="194.745"/>
			<polyline style="fill:none;stroke:#263238;stroke-miterlimit:10;" points="288.832,190.944 295.556,194.745 289.417,198.545 			
				"/>
		</g>
		<g>
			<line style="fill:none;stroke:#263238;stroke-miterlimit:10;" x1="168.901" y1="194.745" x2="199.303" y2="194.745"/>
			<polyline style="fill:none;stroke:#263238;stroke-miterlimit:10;" points="192.872,190.944 199.595,194.745 193.456,198.545 			
				"/>
		</g>
		<g>
			<line style="fill:none;stroke:#263238;stroke-miterlimit:10;" x1="232.515" y1="163.79" x2="232.515" y2="173.035"/>
			<polyline style="fill:none;stroke:#263238;stroke-miterlimit:10;" points="236.315,166.604 232.515,173.328 228.715,167.189 			
				"/>
		</g>
		<g>
			<line style="fill:none;stroke:#263238;stroke-miterlimit:10;" x1="294.971" y1="205.674" x2="265.728" y2="205.674"/>
			<polyline style="fill:none;stroke:#263238;stroke-miterlimit:10;" points="271.914,201.874 265.447,205.674 271.351,209.475 			
				"/>
		</g>
		<g>
			<line style="fill:none;stroke:#263238;stroke-miterlimit:10;" x1="205.813" y1="135.988" x2="260.769" y2="135.988"/>
			<line style="fill:none;stroke:#263238;stroke-miterlimit:10;" x1="205.813" y1="141.249" x2="260.769" y2="141.249"/>
			<line style="fill:none;stroke:#263238;stroke-miterlimit:10;" x1="205.813" y1="146.511" x2="260.769" y2="146.511"/>
		</g>
		<g>
			<line style="fill:none;stroke:#263238;stroke-miterlimit:10;" x1="112.854" y1="190.944" x2="162.256" y2="190.944"/>
			<line style="fill:none;stroke:#263238;stroke-miterlimit:10;" x1="112.854" y1="196.206" x2="162.256" y2="196.206"/>
			<line style="fill:none;stroke:#263238;stroke-miterlimit:10;" x1="112.854" y1="201.468" x2="162.256" y2="201.468"/>
		</g>
		<g>
			<line style="fill:none;stroke:#263238;stroke-miterlimit:10;" x1="208.736" y1="190.944" x2="258.138" y2="190.944"/>
			<line style="fill:none;stroke:#263238;stroke-miterlimit:10;" x1="208.736" y1="196.206" x2="258.138" y2="196.206"/>
			<line style="fill:none;stroke:#263238;stroke-miterlimit:10;" x1="208.736" y1="201.468" x2="258.138" y2="201.468"/>
		</g>
		<g>
			<line style="fill:none;stroke:#263238;stroke-miterlimit:10;" x1="301.11" y1="190.944" x2="350.513" y2="190.944"/>
			<line style="fill:none;stroke:#263238;stroke-miterlimit:10;" x1="301.11" y1="196.206" x2="350.513" y2="196.206"/>
			<line style="fill:none;stroke:#263238;stroke-miterlimit:10;" x1="301.11" y1="201.468" x2="350.513" y2="201.468"/>
		</g>
		<g>
			<line style="fill:none;stroke:#263238;stroke-miterlimit:10;" x1="161.379" y1="240.932" x2="199.089" y2="240.932"/>
			<line style="fill:none;stroke:#263238;stroke-miterlimit:10;" x1="161.379" y1="246.193" x2="199.089" y2="246.193"/>
			<line style="fill:none;stroke:#263238;stroke-miterlimit:10;" x1="161.379" y1="251.455" x2="199.089" y2="251.455"/>
		</g>
		<g>
			<g>
				<path style="fill:#92E3A9;" d="M328.603,140.578c-0.168,0-0.331-0.085-0.425-0.239c-0.14-0.231-0.07-0.531,0.158-0.676
					l0.38-0.243l-0.134,0.078c-0.234,0.134-0.532,0.059-0.672-0.172c-0.141-0.23-0.072-0.53,0.155-0.676l1.974-1.272l-1.749,1.01
					c-0.234,0.135-0.531,0.059-0.672-0.17c-0.141-0.229-0.074-0.529,0.151-0.676l3.578-2.339l-3.384,1.954
					c-0.234,0.133-0.529,0.059-0.671-0.168c-0.142-0.227-0.077-0.526,0.146-0.675l5.579-3.738l-5.436,3.139
					c-0.228,0.131-0.522,0.061-0.667-0.162c-0.143-0.223-0.086-0.52,0.13-0.673l8.378-5.969l-8.364,4.829
					c-0.229,0.134-0.524,0.062-0.669-0.164c-0.143-0.225-0.082-0.523,0.138-0.674l6.015-4.161l-5.904,3.409
					c-0.235,0.132-0.528,0.06-0.67-0.167c-0.142-0.227-0.079-0.525,0.144-0.675l3.393-2.286l-3.206,1.851
					c-0.234,0.133-0.529,0.059-0.671-0.168c-0.142-0.227-0.077-0.526,0.146-0.675l2.198-1.475l-1.982,1.145
					c-0.226,0.133-0.519,0.063-0.664-0.158c-0.145-0.22-0.092-0.515,0.119-0.672l5.851-4.331l-5.788,3.342
					c-0.224,0.131-0.515,0.063-0.662-0.154c-0.146-0.217-0.097-0.51,0.111-0.67l5.184-3.987l-5.123,2.958
					c-0.226,0.132-0.52,0.063-0.665-0.159c-0.144-0.221-0.09-0.516,0.122-0.672l2.534-1.861l-2.345,1.354
					c-0.226,0.131-0.518,0.063-0.662-0.155c-0.146-0.218-0.096-0.512,0.113-0.671l2.072-1.577l-1.872,1.08
					c-0.225,0.13-0.514,0.064-0.66-0.152c-0.147-0.216-0.1-0.508,0.106-0.67l1.041-0.814l-0.799,0.461
					c-0.204,0.119-0.467,0.076-0.623-0.104c-0.156-0.179-0.164-0.444-0.018-0.631l1.574-2.025l-1.443,0.833
					c-0.173,0.1-0.386,0.087-0.546-0.033c-0.159-0.119-0.232-0.322-0.185-0.515l0.148-0.609c-0.167-0.004-0.329-0.093-0.418-0.248
					c-0.138-0.237-0.056-0.542,0.181-0.679l0.722-0.417c0.171-0.099,0.387-0.086,0.546,0.033c0.159,0.119,0.232,0.322,0.185,0.515
					l-0.125,0.512l2.636-1.522c0.206-0.117,0.467-0.076,0.623,0.104c0.156,0.179,0.164,0.444,0.017,0.631l-1.574,2.025l4.73-2.731
					c0.225-0.131,0.515-0.064,0.66,0.152c0.146,0.216,0.1,0.508-0.106,0.67l-1.042,0.816l2.504-1.446
					c0.225-0.132,0.516-0.064,0.662,0.155c0.146,0.218,0.096,0.512-0.113,0.671l-2.071,1.576l3.412-1.97
					c0.228-0.131,0.521-0.062,0.665,0.159c0.144,0.221,0.09,0.516-0.122,0.672l-2.534,1.861l3.807-2.199
					c0.224-0.131,0.515-0.064,0.662,0.154c0.145,0.217,0.097,0.51-0.111,0.67l-5.184,3.987l6.835-3.946
					c0.227-0.131,0.52-0.062,0.664,0.158c0.145,0.22,0.092,0.515-0.119,0.672l-5.851,4.331l7.217-4.167
					c0.232-0.135,0.528-0.06,0.671,0.167c0.142,0.228,0.077,0.526-0.146,0.675l-2.201,1.476l2.848-1.644
					c0.233-0.135,0.527-0.061,0.669,0.167c0.142,0.227,0.079,0.525-0.144,0.675l-3.39,2.284l4.013-2.317
					c0.233-0.132,0.525-0.06,0.669,0.164c0.143,0.225,0.082,0.523-0.138,0.674l-6.015,4.161l6.819-3.938
					c0.226-0.133,0.522-0.062,0.667,0.161c0.143,0.223,0.086,0.52-0.13,0.673l-8.377,5.969l9.326-5.384
					c0.233-0.134,0.528-0.06,0.67,0.168c0.142,0.227,0.077,0.526-0.146,0.675l-5.584,3.741l6.064-3.5
					c0.234-0.134,0.531-0.059,0.672,0.17c0.141,0.229,0.074,0.529-0.151,0.676l-3.576,2.337l3.83-2.211
					c0.235-0.134,0.533-0.059,0.672,0.172c0.141,0.23,0.072,0.53-0.155,0.676l-1.974,1.272l2.076-1.198
					c0.236-0.134,0.532-0.058,0.673,0.173c0.14,0.231,0.07,0.531-0.158,0.676l-0.376,0.24l0.428-0.247
					c0.228-0.133,0.523-0.062,0.668,0.163c0.143,0.224,0.083,0.521-0.134,0.674l-5.791,4.066l6.022-3.477
					c0.233-0.135,0.528-0.061,0.671,0.168c0.142,0.227,0.077,0.526-0.146,0.675l-0.125,0.084l0.02-0.012
					c0.227-0.133,0.523-0.062,0.666,0.162c0.144,0.223,0.087,0.519-0.128,0.673l-1.117,0.799l1.052-0.607
					c0.209-0.12,0.477-0.074,0.632,0.114c0.154,0.187,0.151,0.459-0.008,0.642l-1.904,2.191l1.843-1.064
					c0.184-0.106,0.415-0.084,0.576,0.057c0.159,0.14,0.212,0.367,0.131,0.564l-0.195,0.472c0.186-0.023,0.389,0.066,0.492,0.245
					c0.138,0.238,0.056,0.542-0.182,0.679l-1.057,0.61c-0.184,0.106-0.416,0.084-0.576-0.057c-0.159-0.14-0.212-0.367-0.131-0.564
					l0.171-0.413l-3.143,1.815c-0.209,0.12-0.477,0.074-0.632-0.114c-0.154-0.187-0.151-0.459,0.008-0.642l1.904-2.191l-7.331,4.233
					c-0.228,0.132-0.524,0.061-0.666-0.161c-0.144-0.223-0.087-0.519,0.128-0.673l1.121-0.801l-4.142,2.391
					c-0.234,0.133-0.53,0.059-0.671-0.168c-0.142-0.228-0.077-0.526,0.146-0.675l0.124-0.083l-2.771,1.6
					c-0.228,0.133-0.524,0.061-0.668-0.163c-0.143-0.224-0.083-0.521,0.134-0.674l5.79-4.065l-10.308,5.951
					C328.773,140.557,328.688,140.578,328.603,140.578z"/>
			</g>
		</g>
		<path style="fill:none;stroke:#263238;stroke-miterlimit:10;" d="M313.186,154.58c-4.476-3.9-7.275-9.46-7.275-15.63
			c0-11.798,10.232-21.362,22.853-21.362c12.621,0,22.853,9.564,22.853,21.362s-10.232,21.363-22.853,21.363
			c-3.435,0-6.693-0.709-9.616-1.978"/>
		<line style="fill:none;stroke:#263238;stroke-miterlimit:10;" x1="285.781" y1="134.388" x2="300.213" y2="134.388"/>
		<line style="fill:none;stroke:#263238;stroke-miterlimit:10;" x1="285.781" y1="139.365" x2="300.213" y2="139.365"/>
		<line style="fill:none;stroke:#263238;stroke-miterlimit:10;" x1="285.781" y1="144.341" x2="300.213" y2="144.341"/>
		<line style="fill:none;stroke:#263238;stroke-miterlimit:10;" x1="111.35" y1="219.239" x2="136.731" y2="219.239"/>
		<line style="fill:none;stroke:#263238;stroke-miterlimit:10;" x1="111.35" y1="224.216" x2="136.731" y2="224.216"/>
		<line style="fill:none;stroke:#263238;stroke-miterlimit:10;" x1="106.078" y1="154.541" x2="131.459" y2="154.541"/>
		<line style="fill:none;stroke:#263238;stroke-miterlimit:10;" x1="111.35" y1="229.193" x2="136.731" y2="229.193"/>
		<line style="fill:none;stroke:#263238;stroke-miterlimit:10;" x1="111.35" y1="239.643" x2="136.731" y2="239.643"/>
		<line style="fill:none;stroke:#263238;stroke-miterlimit:10;" x1="111.35" y1="244.62" x2="136.731" y2="244.62"/>
		<line style="fill:none;stroke:#263238;stroke-miterlimit:10;" x1="111.35" y1="249.597" x2="136.731" y2="249.597"/>
		<polyline style="fill:none;stroke:#263238;stroke-miterlimit:10;" points="322.675,118.18 328.852,140.512 351.421,135.356 		"/>
		<polyline style="fill:none;stroke:#263238;stroke-miterlimit:10;" points="106.349,123.899 106.349,148.756 146.271,148.756 		"/>
		<rect x="110.492" y="127.288" style="fill:#92E3A9;stroke:#263238;stroke-miterlimit:10;" width="8.286" height="21.468"/>
		<rect x="131.583" y="132.184" style="fill:#92E3A9;stroke:#263238;stroke-miterlimit:10;" width="8.286" height="16.571"/>
		<rect x="121.038" y="120.509" style="fill:#92E3A9;stroke:#263238;stroke-miterlimit:10;" width="8.286" height="28.247"/>
	</g>
</g>
<g id="Plants">
	<g>
		<g>
			<g>
				<path style="fill:#92E3A9;" d="M58.292,284.111c0,0,0-4.179-5.851-10.03c-5.851-5.851-9.612-9.194-9.612-9.194
					s-2.925,9.612,2.508,15.463c5.433,5.851,12.956,11.284,12.956,11.284V284.111z"/>
				<path style="fill:#92E3A9;" d="M49.801,310.212c0,0,0-4.179-5.851-10.031c-5.851-5.851-9.612-9.194-9.612-9.194
					s-2.926,9.612,2.507,15.464c5.433,5.851,12.956,11.284,12.956,11.284V310.212z"/>
				<path style="fill:#92E3A9;" d="M57.924,291.229c0,0,0.442-4.156,6.878-9.356c6.437-5.2,10.53-8.127,10.53-8.127
					s1.893,9.868-4.127,15.112c-6.021,5.244-14.076,9.852-14.076,9.852L57.924,291.229z"/>
				<path style="fill:#92E3A9;" d="M47.666,322.054c0,0,0.876-4.087,7.823-8.582c6.947-4.495,11.325-6.976,11.325-6.976
					s0.846,10.012-5.692,14.595c-6.538,4.583-15.033,8.319-15.033,8.319L47.666,322.054z"/>
				<path style="fill:#92E3A9;" d="M49.595,355.662c0,0,0-4.179,5.851-10.03c5.851-5.851,9.612-9.195,9.612-9.195
					s2.926,9.612-2.508,15.463c-5.433,5.851-12.956,11.284-12.956,11.284V355.662z"/>
				<path style="fill:#92E3A9;" d="M49.497,363.865c0,0,0.594-4.137-4.366-10.76c-4.96-6.623-8.208-10.467-8.208-10.467
					s-4.262,9.099,0.285,15.663c4.546,6.564,11.221,13.011,11.221,13.011L49.497,363.865z"/>
				<path style="fill:#92E3A9;" d="M43.728,388.176c0,0,0-4.179,5.851-10.03c5.851-5.851,9.612-9.194,9.612-9.194
					s2.925,9.612-2.507,15.463c-5.433,5.851-12.956,11.284-12.956,11.284V388.176z"/>
				<path style="fill:#92E3A9;" d="M47.635,410.218c0,0-1.058-4.043,3.12-11.185c4.178-7.142,6.97-11.329,6.97-11.329
					s5.265,8.558,1.491,15.594c-3.774,7.036-9.676,14.198-9.676,14.198L47.635,410.218z"/>
			</g>
			<path style="fill:none;stroke:#263238;stroke-linecap:round;stroke-linejoin:round;stroke-miterlimit:10;" d="M58.822,283.04
				c-0.342,4.467-0.85,9.089-1.603,12.977c-2.313,11.95-8.095,19.659-10.408,30.453c-2.313,10.793,4.327,24.699,2.549,38.562
				c-1.778,13.863-7.175,21.573-5.633,30.825c1.542,9.252,9.637,34.308,9.637,34.308"/>
			
				<line style="fill:none;stroke:#263238;stroke-linecap:round;stroke-linejoin:round;stroke-miterlimit:10;" x1="57.867" y1="294.007" x2="64.172" y2="289.168"/>
			
				<line style="fill:none;stroke:#263238;stroke-linecap:round;stroke-linejoin:round;stroke-miterlimit:10;" x1="58.16" y1="288.435" x2="55.521" y2="283.742"/>
			<path style="fill:none;stroke:#263238;stroke-linecap:round;stroke-linejoin:round;stroke-miterlimit:10;" d="M47.162,325.974
				c0,0,5.279-3.959,10.704-7.918"/>
			<path style="fill:none;stroke:#263238;stroke-linecap:round;stroke-linejoin:round;stroke-miterlimit:10;" d="M49.801,317.735
				c0,0-4.398-8.624-9.384-14.343"/>
			<path style="fill:none;stroke:#263238;stroke-linecap:round;stroke-linejoin:round;stroke-miterlimit:10;" d="M49.802,361.607
				c0,0,4.106-8.065,11.291-15.104"/>
			<path style="fill:none;stroke:#263238;stroke-linecap:round;stroke-linejoin:round;stroke-miterlimit:10;" d="M48.775,367.473
				c0,0-2.639-6.305-5.719-10.851c-3.079-4.546-3.519-5.133-3.519-5.133"/>
			<path style="fill:none;stroke:#263238;stroke-linecap:round;stroke-linejoin:round;stroke-miterlimit:10;" d="M43.728,395.857
				c0,0,2.115-5.362,4.754-9.614c2.639-4.253,6.159-8.065,6.159-8.065"/>
			<path style="fill:none;stroke:#263238;stroke-linecap:round;stroke-linejoin:round;stroke-miterlimit:10;" d="M49.54,417.495
				c0,0-0.618-5.004,1.581-9.257c2.2-4.252,4.693-9.825,5.719-12.024"/>
		</g>
		<g>
			<g>
				<path style="fill:#92E3A9;" d="M19.978,339.944c0,0-0.454-2.621,2.58-6.925s5.03-6.809,5.03-6.809s2.878,5.71,0.106,9.969
					c-2.772,4.259-6.899,8.482-6.899,8.482L19.978,339.944z"/>
				<path style="fill:#92E3A9;" d="M28.136,355.39c0,0-0.454-2.621,2.58-6.925c3.034-4.304,5.03-6.809,5.03-6.809
					s2.878,5.71,0.106,9.969c-2.772,4.259-6.899,8.483-6.899,8.483L28.136,355.39z"/>
				<path style="fill:#92E3A9;" d="M20.981,344.368c0,0-0.728-2.558-5.329-5.12c-4.601-2.562-7.486-3.953-7.486-3.953
					s-0.116,6.393,4.229,9.029c4.345,2.635,9.896,4.65,9.896,4.65L20.981,344.368z"/>
				<path style="fill:#92E3A9;" d="M30.76,362.584c0,0-0.993-2.467-5.837-4.532c-4.844-2.065-7.859-3.145-7.859-3.145
					s0.556,6.37,5.154,8.534c4.598,2.164,10.33,3.585,10.33,3.585L30.76,362.584z"/>
				<path style="fill:#92E3A9;" d="M33.199,383.868c0,0-0.454-2.621-4.758-5.655s-7.026-4.722-7.026-4.722s-0.791,6.345,3.251,9.424
					c4.042,3.079,9.35,5.67,9.35,5.67L33.199,383.868z"/>
				<path style="fill:#92E3A9;" d="M34.151,389.001c0,0-0.821-2.53,1.57-7.221c2.391-4.692,4.011-7.455,4.011-7.455
					s3.66,5.243,1.522,9.853c-2.139,4.609-5.624,9.377-5.624,9.377L34.151,389.001z"/>
				<path style="fill:#92E3A9;" d="M41.495,410.141c0,0,0.303-2.642,4.428-5.917c4.124-3.275,6.745-5.115,6.745-5.115
					s1.152,6.29-2.708,9.595c-3.86,3.305-9.011,6.194-9.011,6.194L41.495,410.141z"/>
				<path style="fill:#92E3A9;" d="M40.408,403.62c0,0-0.454-2.621-4.758-5.655c-4.304-3.034-7.026-4.722-7.026-4.722
					s-0.791,6.345,3.251,9.425c4.042,3.079,9.349,5.67,9.349,5.67L40.408,403.62z"/>
				<path style="fill:#92E3A9;" d="M40.351,417.866c0,0,0.225-2.65-3.171-6.675c-3.395-4.025-5.601-6.348-5.601-6.348
					s-2.372,5.938,0.758,9.941c3.131,4.003,7.609,7.853,7.609,7.853L40.351,417.866z"/>
			</g>
			<path style="fill:none;stroke:#263238;stroke-linecap:round;stroke-linejoin:round;stroke-miterlimit:10;" d="M19.529,339.33
				c0.7,2.764,1.52,5.607,2.414,7.963c2.747,7.242,7.21,11.449,9.833,17.967c2.622,6.517-0.032,15.958,2.588,24.458
				c2.62,8.5,6.841,12.749,6.879,18.718c0.037,5.969-2.319,22.56-2.319,22.56"/>
			
				<line style="fill:none;stroke:#263238;stroke-linecap:round;stroke-linejoin:round;stroke-miterlimit:10;" x1="21.319" y1="346.104" x2="16.84" y2="343.754"/>
			
				<line style="fill:none;stroke:#263238;stroke-linecap:round;stroke-linejoin:round;stroke-miterlimit:10;" x1="20.53" y1="342.641" x2="21.676" y2="339.412"/>
			<path style="fill:none;stroke:#263238;stroke-linecap:round;stroke-linejoin:round;stroke-miterlimit:10;" d="M31.502,364.987
				c0,0-3.74-1.91-7.572-3.803"/>
			<path style="fill:none;stroke:#263238;stroke-linecap:round;stroke-linejoin:round;stroke-miterlimit:10;" d="M28.953,360.107
				c0,0,1.822-5.885,4.327-10.013"/>
			<path style="fill:none;stroke:#263238;stroke-linecap:round;stroke-linejoin:round;stroke-miterlimit:10;" d="M33.715,387.619
				c0,0-3.45-4.612-8.72-8.246"/>
			<path style="fill:none;stroke:#263238;stroke-linecap:round;stroke-linejoin:round;stroke-miterlimit:10;" d="M34.995,391.186
				c0,0,0.971-4.241,2.408-7.426c1.438-3.185,1.65-3.6,1.65-3.6"/>
			<path style="fill:none;stroke:#263238;stroke-linecap:round;stroke-linejoin:round;stroke-miterlimit:10;" d="M41.039,412.964
				c0,0,2.969-3.639,4.817-5.001c1.848-1.362,3.128-2.72,3.128-2.72"/>
			<path style="fill:none;stroke:#263238;stroke-linecap:round;stroke-linejoin:round;stroke-miterlimit:10;" d="M41.242,408.437
				c0,0-1.908-3.133-4.025-5.513c-2.117-2.38-4.737-4.389-4.737-4.389"/>
			<path style="fill:none;stroke:#263238;stroke-linecap:round;stroke-linejoin:round;stroke-miterlimit:10;" d="M39.946,422.637
				c0,0-0.156-3.205-1.997-5.633c-1.841-2.428-4.009-5.652-4.892-6.919"/>
		</g>
	</g>
</g>
<g id="Clock">
	<g>
		
			<ellipse transform="matrix(0.2262 -0.9741 0.9741 0.2262 186.2008 544.4289)" style="fill:#263238;stroke:#263238;stroke-miterlimit:10;" cx="435.785" cy="155.013" rx="36.267" ry="36.267"/>
		
			<ellipse transform="matrix(0.9208 -0.39 0.39 0.9208 -25.948 182.2178)" style="fill:#FFFFFF;stroke:#263238;stroke-miterlimit:10;" cx="435.784" cy="155.013" rx="30.807" ry="30.807"/>
		<polyline style="fill:none;stroke:#263238;stroke-miterlimit:10;" points="445.304,135.265 435.784,155.013 449.378,155.013 		"/>
		<path style="fill:#92E3A9;stroke:#263238;stroke-miterlimit:10;" d="M439.235,155.013c0,1.906-1.545,3.451-3.451,3.451
			s-3.451-1.545-3.451-3.451c0-1.906,1.545-3.451,3.451-3.451S439.235,153.107,439.235,155.013z"/>
	</g>
</g>
<g id="Characters_3">
	<g>
		<g>
			<g>
				<path style="fill:#FFFFFF;stroke:#263238;stroke-linecap:round;stroke-linejoin:round;stroke-miterlimit:10;" d="
					M239.663,248.721l-4.648-6.782c0,0,0.914-10.899-0.124-12.599c-1.039-1.699-17.9-3.673-18.851-2.409
					c-0.951,1.263,2.542,2.396,2.542,2.396s-2.397,1.064-2.146,2.274c0.368,1.78,3.43,2.006,3.43,2.006s-2.432,1.633-2.133,2.697
					c0.235,0.836,2.678,1.501,2.678,1.501s-2.471,1.119-0.452,2.542c2.019,1.423,3.729,2.915,3.729,2.915s-1.394,3.006,2.389,5.613
					c3.783,2.606,10.348,7.355,10.348,7.355L239.663,248.721z"/>
				<path style="fill:#263238;stroke:#263238;stroke-linecap:round;stroke-linejoin:round;stroke-miterlimit:10;" d="
					M216.632,222.393l-3.736-0.317l0.034,1.16l2.982,1.684C215.912,224.919,216.561,222.089,216.632,222.393z"/>
				<g>
					<path style="fill:#FFFFFF;stroke:#263238;stroke-linecap:round;stroke-linejoin:round;stroke-miterlimit:10;" d="
						M231.291,229.941c-0.161,0.005-0.327-0.017-0.49-0.069l-14.806-4.67c-0.78-0.246-1.214-1.079-0.968-1.859
						c0.246-0.781,1.078-1.216,1.859-0.967l14.807,4.67c0.78,0.246,1.214,1.079,0.967,1.859
						C232.466,229.523,231.904,229.923,231.291,229.941z"/>
				</g>
				<g>
					<path style="fill:#263238;stroke:#263238;stroke-linecap:round;stroke-linejoin:round;stroke-miterlimit:10;" d="
						M238.947,232.845c-0.216,0.006-0.436-0.023-0.653-0.091l-7.641-2.41c-1.041-0.328-1.618-1.438-1.29-2.479
						c0.328-1.04,1.439-1.617,2.479-1.29l7.642,2.41c1.041,0.328,1.618,1.438,1.29,2.479
						C240.514,232.287,239.764,232.821,238.947,232.845z"/>
				</g>
				<path style="fill:#FFFFFF;stroke:#263238;stroke-linecap:round;stroke-linejoin:round;stroke-miterlimit:10;" d="
					M232.836,235.084c0,0-1.351-3.914-2.397-5.86c-1.046-1.946-3.072-3.616-3.871-5.569c-0.799-1.953-2.934,1.075-2.149,2.535
					c0.784,1.459,2.578,3.63,2.607,4.618c0.029,0.987,0.298,1.721-0.842,4.967c-1.14,3.246-1.771,6.971,0.778,9.614"/>
				
					<line style="fill:none;stroke:#263238;stroke-linecap:round;stroke-linejoin:round;stroke-miterlimit:10;" x1="218.581" y1="229.327" x2="227.026" y2="230.808"/>
				<path style="fill:none;stroke:#263238;stroke-linecap:round;stroke-linejoin:round;stroke-miterlimit:10;" d="M219.865,233.607
					c0.98-0.276,6.319,2.168,6.319,2.168"/>
				
					<line style="fill:none;stroke:#263238;stroke-linecap:round;stroke-linejoin:round;stroke-miterlimit:10;" x1="220.41" y1="237.805" x2="224.805" y2="239.275"/>
			</g>
			<path style="fill:#92E3A9;stroke:#263238;stroke-linecap:round;stroke-linejoin:round;stroke-miterlimit:10;" d="M298.83,235.691
				c0,0-2.515-1.491-3.633,2.496s-4.37,11.001-5.808,12.527c-1.438,1.525-15.604,15.533-15.604,15.533s-6.071-4.763-7.501-2.991
				c-1.43,1.772-2.411,2.048-2.411,2.048l-24.284-19.052l-8.989,13.609c0,0,33.013,30.161,35.758,31.068
				c2.745,0.907,4.713,0.602,5.686,0.079c0.973-0.523,19.103-14.154,19.103-14.154s11.056-35.662,12.007-36.925
				C304.107,238.665,298.83,235.691,298.83,235.691z"/>
			<path style="fill:#92E3A9;stroke:#263238;stroke-linecap:round;stroke-linejoin:round;stroke-miterlimit:10;" d="
				M266.223,266.332c0,0,4.919,5.676,4.919,12.865"/>
			<path style="fill:#92E3A9;stroke:#263238;stroke-linecap:round;stroke-linejoin:round;stroke-miterlimit:10;" d="
				M274.169,268.602c0,0,1.513,3.784-0.757,12.108"/>
		</g>
		<path style="fill:#263238;stroke:#263238;stroke-linecap:round;stroke-linejoin:round;stroke-miterlimit:10;" d="M309.649,191.68
			c0,0-10.716-7.016-9.445-13.652c1.271-6.636,25.308-11.989,39.126-7.508c13.818,4.48,16.628,25.171,14.805,37.933
			c-1.823,12.762-2.919,41.878-2.919,41.878l-46.883,1.383c0,0,4.371-34.1,5.275-44.88
			C310.511,196.054,309.649,191.68,309.649,191.68z"/>
		<g>
			<path style="fill:#263238;stroke:#263238;stroke-linecap:round;stroke-linejoin:round;stroke-miterlimit:10;" d="
				M285.648,379.428c0.953,10.188,2.899,55.092,3.966,61.744h48.783c-0.098-7.663-0.232-59.404,0.878-63.634
				c1.387-5.286,3.334-22.929,1.185-33.047c-2.15-10.118-4.761-14.977-4.761-14.977l-50.599-0.05l0.146,4.151
				C285.245,333.615,284.296,364.967,285.648,379.428z"/>
			<path style="fill:none;stroke:#4C4C4C;stroke-linecap:round;stroke-linejoin:round;stroke-miterlimit:10;" d="M296.47,348.873
				c2.032,1.363,4.008,2.352,4.008,4.327c0.988,17.784,4.94,67.717,6.33,85.711"/>
		</g>
		<g>
			<path style="fill:#FFFFFF;stroke:#263238;stroke-linecap:round;stroke-linejoin:round;stroke-miterlimit:10;" d="M311,235.003
				l24.737,0.918c0,0-19.855,30.568-19.689,47.366c0.166,16.798,3.5,51.624,3.5,51.624s-10.881,8.606-22.132,6.961
				c-1.22-0.178-1.865-10.258-1.865-10.258s-0.726,9.785-1.554,9.636c-6.293-1.128-8.752-7.634-8.752-7.634l1.314-33.645
				c0,0,0.008-22.075,2.457-28.407c2.449-6.332,19.08-34.498,19.08-34.498L311,235.003z"/>
			<path style="fill:none;stroke:#263238;stroke-linecap:round;stroke-linejoin:round;stroke-miterlimit:10;" d="M310.035,254.479
				c0,0-7.645,15.898-10.443,25.224c-2.798,9.325-4.041,51.91-4.041,51.91"/>
		</g>
		<g>
			<path style="fill:#92E3A9;stroke:#263238;stroke-linecap:round;stroke-linejoin:round;stroke-miterlimit:10;" d="
				M332.765,235.678c0,0-17.357,25.881-20.707,35.205c-3.349,9.324-5.592,44.973-5.146,60.115
				c0.447,15.142,5.221,31.805,5.221,31.805s19.887,4.026,42.087-2.889c0,0-6.063-26.838-8.959-35.648
				c-2.896-8.81-4.145-17.669-4.145-17.669s19.871-63.515,19.842-64.503c-0.029-0.988-0.388-1.965-2.382-2.566
				C356.583,238.929,332.765,235.678,332.765,235.678z"/>
			<polyline style="fill:#92E3A9;stroke:#263238;stroke-linecap:round;stroke-linejoin:round;stroke-miterlimit:10;" points="
				316.864,334.677 342.608,332.618 342.951,336.737 331.967,338.11 			"/>
		</g>
		<path style="fill:#92E3A9;stroke:#263238;stroke-linecap:round;stroke-linejoin:round;stroke-miterlimit:10;" d="M310.768,238.304
			c0,0-20.668,36.522-21.132,43.125c-0.464,6.603-3.521,37.005-5.214,46.609c-1.694,9.605-9.05,28.272-9.05,28.272
			s-1.889-8.181-1.337-11.822c0.552-3.64,8.508-24.302,9.36-28.94c0.852-4.638,2.012-21.146,1.798-28.388
			c-0.214-7.242-0.698-12.499,0.792-17.815c1.491-5.315,12.845-33.655,12.845-33.655l16.449-0.815L310.768,238.304z"/>
		<g>
			<polygon style="fill:#FFFFFF;stroke:#263238;stroke-linecap:round;stroke-linejoin:round;stroke-miterlimit:10;" points="
				306.292,235.282 302.846,251.025 311.686,244.165 			"/>
			<polygon style="fill:#FFFFFF;stroke:#263238;stroke-linecap:round;stroke-linejoin:round;stroke-miterlimit:10;" points="
				316.82,227.639 306.292,235.282 310.264,245.674 310.035,254.479 321.977,236.774 			"/>
		</g>
		<path style="fill:#FFFFFF;stroke:#263238;stroke-linecap:round;stroke-linejoin:round;stroke-miterlimit:10;" d="M316.209,223.503
			c0,0-2.01,14.723-2.627,18.652c-0.617,3.928-3.547,12.324-3.547,12.324s18.772-18.15,19.705-19.644
			c0.934-1.494,4.171-16.009,4.171-16.009S321.825,223.337,316.209,223.503z"/>
		<path style="fill:#263238;stroke:#263238;stroke-linecap:round;stroke-linejoin:round;stroke-miterlimit:10;" d="M315.642,227.631
			c2.556,1.595,4.544,1.595,7.512,1.135c2.976-0.462,7.021-3.238,9.72-5.423c0.599-2.554,1.038-4.517,1.038-4.517
			s-12.087,4.511-17.703,4.677C316.209,223.503,315.975,225.217,315.642,227.631z"/>
		<g>
			<path style="fill:#FFFFFF;stroke:#263238;stroke-linecap:round;stroke-linejoin:round;stroke-miterlimit:10;" d="
				M322.224,178.845l-13.853,10.918c0,0-1.4,10.55-1.916,17.897c-0.516,7.347,2.572,12.633,6.587,16.18
				c4.015,3.548,6.22,3.727,10.112,3.123c3.892-0.604,9.623-5.172,11.763-7.19c2.14-2.018,6.118-8.001,6.118-8.001
				s3.196,0.639,4.129-0.855s1.156-2.234,1.156-2.234s-13.172-7.432-18.581-16.804C322.332,182.508,322.224,178.845,322.224,178.845
				z"/>
			<g>
				<path style="fill:none;stroke:#263238;stroke-linecap:round;stroke-linejoin:round;stroke-miterlimit:10;" d="M317.909,198.28
					c0,0-0.402,2.945-1.335,4.438c-0.933,1.494-4.575,2.335-2.571,3.986c2.004,1.652,5.178,1.558,5.178,1.558"/>
				<path style="fill:none;stroke:#263238;stroke-linecap:round;stroke-linejoin:round;stroke-miterlimit:10;" d="M313.888,211.107
					c0,0,7.426,3.202,12.188-1.093"/>
				<path style="fill:none;stroke:#263238;stroke-linecap:round;stroke-linejoin:round;stroke-miterlimit:10;" d="M316.366,212.256
					c0,0,1.099,4.122,3.519,3.318c2.42-0.805,4.524-4.044,4.524-4.044S321.25,212.112,316.366,212.256z"/>
				<path style="fill:#263238;" d="M327.253,200.204c0.032,1.079-0.434,1.968-1.041,1.986c-0.607,0.018-1.125-0.842-1.156-1.921
					c-0.032-1.079,0.434-1.968,1.041-1.986C326.703,198.265,327.221,199.125,327.253,200.204z"/>
				<path style="fill:#263238;" d="M315.604,198.837c0.032,1.079-0.434,1.968-1.041,1.986c-0.607,0.018-1.125-0.842-1.156-1.921
					c-0.032-1.079,0.434-1.968,1.041-1.986C315.054,196.898,315.572,197.758,315.604,198.837z"/>
				<path style="fill:none;stroke:#263238;stroke-linecap:round;stroke-linejoin:round;stroke-miterlimit:10;" d="M311.682,194.309
					c0,0,2.607-2.765,5.623,0.079"/>
				<path style="fill:none;stroke:#263238;stroke-linecap:round;stroke-linejoin:round;stroke-miterlimit:10;" d="M322.943,194.954
					c0,0,5.558-2.119,7.9,2.7"/>
			</g>
		</g>
		<g>
			<polygon style="fill:#FFFFFF;stroke:#263238;stroke-linecap:round;stroke-linejoin:round;stroke-miterlimit:10;" points="
				319.859,239.525 310.035,254.479 324.47,246.721 			"/>
			<polygon style="fill:#FFFFFF;stroke:#263238;stroke-linecap:round;stroke-linejoin:round;stroke-miterlimit:10;" points="
				336.34,226.575 319.859,239.525 324.658,253.07 340.492,234.762 			"/>
		</g>
		<g>
			<path style="fill:#FFFFFF;stroke:#263238;stroke-linecap:round;stroke-linejoin:round;stroke-miterlimit:10;" d="
				M316.312,303.375c0,0-2.653-0.581-6.342-2.778c-3.689-2.198-7.62-1.423-10.912-1.326c-3.292,0.097-5.577,0.823-5.209,2.13
				c0.368,1.307,3.66,1.21,4.647,1.181c0.988-0.029,2.682,1.568,2.682,1.568l-8.226,1.992c0,0-2.585,1.724-0.552,3.641
				c2.033,1.917,2.398,1.475,2.398,1.475s3.108,4.85,6.41,5.082c3.302,0.232,16.711-3.129,16.711-3.129L316.312,303.375z"/>
			<path style="fill:#92E3A9;stroke:#263238;stroke-linecap:round;stroke-linejoin:round;stroke-miterlimit:10;" d="
				M339.628,265.575c0.387,1.965,2.524,31.437,2.524,31.437l-27.157,6.402l1.444,15.443c0,0,48.593-5.717,49.493-8.708
				c0.9-2.992-2.27-54.625-2.029-57.597c0.242-2.972,4.23-12.974-7.63-12.954"/>
			<path style="fill:#92E3A9;stroke:#263238;stroke-linecap:round;stroke-linejoin:round;stroke-miterlimit:10;" d="
				M344.168,260.656c0,0,7.946-10.216,16.648-9.838"/>
			<path style="fill:#92E3A9;stroke:#263238;stroke-linecap:round;stroke-linejoin:round;stroke-miterlimit:10;" d="M344.168,264.44
				c0,0,6.811-3.784,13.622-3.784"/>
		</g>
	</g>
</g>
<g id="Character_1">
	<g>
		<g>
			<path style="fill:#4C4C4C;stroke:#263238;stroke-linecap:round;stroke-linejoin:round;stroke-miterlimit:10;" d="M40.664,441.171
				v-57.857c0-0.954-0.774-1.728-1.728-1.728H31.85c-0.955,0-1.728,0.774-1.728,1.728v57.857H40.664z"/>
			<g>
				<path style="fill:#263238;stroke:#263238;stroke-linecap:round;stroke-linejoin:round;stroke-miterlimit:10;" d="
					M31.828,441.171v-57.857c0-0.954-0.774-1.728-1.728-1.728h-7.086c-0.955,0-1.728,0.774-1.728,1.728v57.857H31.828z"/>
			</g>
		</g>
		<g>
			<path style="fill:#263238;stroke:#263238;stroke-linecap:round;stroke-linejoin:round;stroke-miterlimit:10;" d="M35.815,441.171
				H162.39c-1.062-2.322-2.47-4.432-4.319-5.6c-5.739-3.625-60.412-12.082-60.412-12.082l-56.787-0.906l-2.719,0.906
				c0,0-3.021,4.229-2.718,6.343C35.587,430.896,35.662,436.084,35.815,441.171z"/>
			<g>
				<path style="fill:#FFFFFF;stroke:#263238;stroke-linecap:round;stroke-linejoin:round;stroke-miterlimit:10;" d="
					M87.389,313.842c0,0-13.291,7.551-17.822,11.78c-4.531,4.229-12.082,18.123-12.686,26.581
					c-0.604,8.458-7.249,40.778-7.249,40.778s-13.593,26.581-11.478,30.508c2.114,3.927,57.995,0,59.506,0
					c1.51,0-1.51-16.613-1.51-16.613s21.144-32.622,22.05-41.382c0.906-8.76-5.437-32.622-6.645-38.059
					C110.345,321.998,90.108,312.634,87.389,313.842z"/>
				<g>
					<path style="fill:none;stroke:#263238;stroke-linecap:round;stroke-linejoin:round;stroke-miterlimit:10;" d="M76.954,359.98
						c0,0,10.568,10.012,15.018,13.349"/>
					<path style="fill:none;stroke:#263238;stroke-linecap:round;stroke-linejoin:round;stroke-miterlimit:10;" d="M71.949,367.767
						c0,0,19.467,6.674,24.473,7.231"/>
				</g>
			</g>
			<g>
				<path style="fill:#FFFFFF;stroke:#263238;stroke-linecap:round;stroke-linejoin:round;stroke-miterlimit:10;" d="
					M128.771,280.012c0,0,1.51,11.176,1.208,14.499c-0.302,3.323-3.323,14.801-4.229,17.217c-0.906,2.416-1.812,5.135-5.135,4.833
					c-3.323-0.302-5.437-1.812-5.437-1.812l-3.323,11.176l-22.956-13.29l3.021-6.041c0,0-3.323-5.437-4.229-14.499
					c-0.906-9.062,4.229-19.332,10.874-23.259c6.645-3.927,18.123-2.416,21.446,0.302
					C123.334,271.856,128.771,280.012,128.771,280.012z"/>
				<path style="fill:#FFFFFF;stroke:#263238;stroke-linecap:round;stroke-linejoin:round;stroke-miterlimit:10;" d="
					M87.691,308.103c1.208,0.302,27.185,12.082,27.487,15.103c0.302,3.021,1.51,12.384,1.51,12.384s-7.854-6.947-17.217-12.082
					c-9.364-5.135-13.895-8.76-13.895-8.76L87.691,308.103z"/>
				<g>
					<path style="fill:#92E3A9;stroke:#263238;stroke-linecap:round;stroke-linejoin:round;stroke-miterlimit:10;" d="
						M110.647,255.243c0,0,7.854-3.323,14.197-1.812s8.76,8.76,8.76,14.801c0,6.041-3.323,13.291-4.531,13.593
						c-1.208,0.302-4.229-14.197-9.968-18.426C113.366,259.17,110.647,255.243,110.647,255.243z"/>
					<g>
						<path style="fill:#92E3A9;stroke:#263238;stroke-linecap:round;stroke-linejoin:round;stroke-miterlimit:10;" d="
							M100.982,257.055c0,0,12.384-6.645,23.258,2.719c10.874,9.364,7.249,18.728,4.833,22.05
							c-2.416,3.323-2.416,9.666-4.229,10.874c-1.812,1.208-2.114-4.833-4.229-6.041c-2.114-1.208-1.812,3.323-4.229,9.364
							c-2.416,6.041-13.291,14.801-19.03,14.197c-5.739-0.604-12.686-6.947-16.613-20.238c-3.927-13.291-1.208-27.487,6.041-32.018
							C94.034,253.43,100.982,257.055,100.982,257.055z"/>
						<path style="fill:none;stroke:#263238;stroke-linecap:round;stroke-linejoin:round;stroke-miterlimit:10;" d="
							M125.017,262.753c0,0,2.4,6.935-3.734,14.67c-6.134,7.735-14.403,12.002-20.537,8.268c-6.134-3.734-6.401-8.001-6.401-8.001"
							/>
						<path style="fill:none;stroke:#263238;stroke-linecap:round;stroke-linejoin:round;stroke-miterlimit:10;" d="M84.476,279.023
							c0,0-1.334,20.804,11.202,22.938c12.536,2.134,19.47-10.935,19.47-10.935"/>
					</g>
					<g>
						
							<ellipse style="fill:#92E3A9;stroke:#263238;stroke-linecap:round;stroke-linejoin:round;stroke-miterlimit:10;" cx="88.446" cy="266.721" rx="12.535" ry="12.686"/>
						<path style="fill:none;stroke:#263238;stroke-linecap:round;stroke-linejoin:round;stroke-miterlimit:10;" d="M85.809,264.887
							c0,0,1.6-8.268,6.134-9.335"/>
						<path style="fill:none;stroke:#263238;stroke-linecap:round;stroke-linejoin:round;stroke-miterlimit:10;" d="M85.276,265.953
							c0,0,9.068-3.201,13.336,0.267"/>
						<path style="fill:none;stroke:#263238;stroke-linecap:round;stroke-linejoin:round;stroke-miterlimit:10;" d="M84.743,267.554
							c0,0-4.001,2.667-2.667,8.802"/>
					</g>
				</g>
				<path style="fill:#FFFFFF;stroke:#263238;stroke-linecap:round;stroke-linejoin:round;stroke-miterlimit:10;" d="
					M122.428,293.604c0,0-0.906-9.062-3.625-8.76c-2.719,0.302-1.51,13.895,0,16.009c1.51,2.114,3.021,0.302,3.021,0.302"/>
			</g>
		</g>
		<g>
			<polygon style="fill:#B5B5B5;stroke:#263238;stroke-linecap:round;stroke-linejoin:round;stroke-miterlimit:10;" points="
				377.726,428.897 97.226,428.897 106.688,405.089 314.619,405.089 			"/>
			
				<rect x="100.34" y="433.659" style="fill:#263238;stroke:#263238;stroke-linecap:round;stroke-linejoin:round;stroke-miterlimit:10;" width="273.537" height="7.512"/>
			
				<rect x="97.226" y="428.897" style="fill:#4C4C4C;stroke:#263238;stroke-linecap:round;stroke-linejoin:round;stroke-miterlimit:10;" width="280.5" height="8.842"/>
		</g>
		<g>
			<polygon style="fill:#FFFFFF;" points="202.903,408.138 211.027,420.967 145.175,420.967 151.589,408.138 			"/>
			<polygon style="fill:#FFFFFF;" points="190.502,411.987 198.626,424.815 132.774,424.815 139.188,411.987 			"/>
		</g>
		<g>
			<path style="fill:#FFFFFF;stroke:#263238;stroke-linecap:round;stroke-linejoin:round;stroke-miterlimit:10;" d="
				M110.345,341.329l12.686,58.901l49.235,6.947c0,0,14.801-6.041,16.009-6.041c1.208,0,3.323,3.625,4.229,4.833
				c0.906,1.208,2.417,3.021,3.021,3.927c0.604,0.906,0.906,5.437,0,6.645c-0.906,1.208-2.719,4.531-4.531,4.229
				c-1.812-0.302,0-5.135,0-5.135s-10.572,4.229-13.895,4.229c-3.323,0-9.968-3.021-9.968-3.021s-56.183,6.343-59.505,5.135
				c-3.323-1.208-5.135-3.021-6.343-5.437c-1.208-2.416-20.54-67.057-20.54-67.057"/>
			<path style="fill:#FFFFFF;stroke:#263238;stroke-linecap:round;stroke-linejoin:round;stroke-miterlimit:10;" d="M192.505,405.97
				c-0.906-1.208-3.021-4.833-4.229-4.833c-1.208,0-16.009,6.041-16.009,6.041l-28.054-3.958c1.21,3.485,2.629,9.438,1.35,15.943
				c11.705-1.205,21.569-2.319,21.569-2.319s6.645,3.021,9.968,3.021c3.323,0,13.895-4.229,13.895-4.229s-1.812,4.833,0,5.135
				c1.812,0.302,3.625-3.021,4.531-4.229c0.906-1.208,0.604-5.739,0-6.645C194.922,408.99,193.411,407.178,192.505,405.97z"/>
		</g>
	</g>
	
		<line style="fill:none;stroke:#263238;stroke-linecap:round;stroke-linejoin:round;stroke-miterlimit:10;" x1="13.759" y1="441.171" x2="492" y2="441.171"/>
</g>
<g id="Device">
	<g>
		<polygon style="fill:#FFFFFF;stroke:#263238;stroke-linecap:round;stroke-linejoin:round;stroke-miterlimit:10;" points="
			276.462,421.369 329.619,421.369 329.619,419.662 250.477,407.825 252.396,409.531 		"/>
		<polygon style="fill:#FFFFFF;stroke:#263238;stroke-linecap:round;stroke-linejoin:round;stroke-miterlimit:10;" points="
			276.462,419.662 329.619,419.662 301.537,408.099 252.396,407.825 		"/>
		<g>
			
				<polygon style="fill:#FFFFFF;stroke:#263238;stroke-width:0.75;stroke-linecap:round;stroke-linejoin:round;stroke-miterlimit:10;" points="
				285.118,410.453 290.103,410.453 287.562,409.389 282.678,409.431 			"/>
			
				<polygon style="fill:#FFFFFF;stroke:#263238;stroke-width:0.75;stroke-linecap:round;stroke-linejoin:round;stroke-miterlimit:10;" points="
				295.226,414.684 297.779,415.753 302.764,415.753 300.212,414.684 			"/>
			
				<polygon style="fill:#FFFFFF;stroke:#263238;stroke-width:0.75;stroke-linecap:round;stroke-linejoin:round;stroke-miterlimit:10;" points="
				304.463,413.081 298.955,413.081 300.411,413.69 305.944,413.69 			"/>
			
				<polygon style="fill:#FFFFFF;stroke:#263238;stroke-width:0.75;stroke-linecap:round;stroke-linejoin:round;stroke-miterlimit:10;" points="
				292.853,413.69 297.839,413.69 296.383,413.081 291.397,413.081 			"/>
			
				<polygon style="fill:#FFFFFF;stroke:#263238;stroke-width:0.75;stroke-linecap:round;stroke-linejoin:round;stroke-miterlimit:10;" points="
				296.582,412.088 302.047,412.088 300.488,411.446 295.05,411.446 			"/>
			
				<polygon style="fill:#FFFFFF;stroke:#263238;stroke-width:0.75;stroke-linecap:round;stroke-linejoin:round;stroke-miterlimit:10;" points="
				277.559,410.453 282.546,410.453 280.158,409.453 275.273,409.495 			"/>
			
				<polygon style="fill:#FFFFFF;stroke:#263238;stroke-width:0.75;stroke-linecap:round;stroke-linejoin:round;stroke-miterlimit:10;" points="
				287.491,411.446 289.024,412.088 294.009,412.088 292.477,411.446 			"/>
			
				<polygon style="fill:#FFFFFF;stroke:#263238;stroke-width:0.75;stroke-linecap:round;stroke-linejoin:round;stroke-miterlimit:10;" points="
				311.917,418.507 317.654,418.507 313.372,416.746 307.71,416.746 			"/>
			
				<polygon style="fill:#FFFFFF;stroke:#263238;stroke-width:0.75;stroke-linecap:round;stroke-linejoin:round;stroke-miterlimit:10;" points="
				300.152,416.746 304.359,418.507 309.345,418.507 305.138,416.746 			"/>
			
				<polygon style="fill:#FFFFFF;stroke:#263238;stroke-width:0.75;stroke-linecap:round;stroke-linejoin:round;stroke-miterlimit:10;" points="
				292.594,416.746 296.801,418.507 301.786,418.507 297.58,416.746 			"/>
			
				<polygon style="fill:#FFFFFF;stroke:#263238;stroke-width:0.75;stroke-linecap:round;stroke-linejoin:round;stroke-miterlimit:10;" points="
				290.021,416.746 280.28,416.746 283.757,418.507 294.228,418.507 			"/>
			
				<polygon style="fill:#FFFFFF;stroke:#263238;stroke-width:0.75;stroke-linecap:round;stroke-linejoin:round;stroke-miterlimit:10;" points="
				292.676,410.453 298.072,410.453 295.322,409.321 290.082,409.367 			"/>
			
				<polygon style="fill:#FFFFFF;stroke:#263238;stroke-width:0.75;stroke-linecap:round;stroke-linejoin:round;stroke-miterlimit:10;" points="
				302.785,414.684 305.337,415.753 310.957,415.753 308.36,414.684 			"/>
			
				<polygon style="fill:#FFFFFF;stroke:#263238;stroke-width:0.75;stroke-linecap:round;stroke-linejoin:round;stroke-miterlimit:10;" points="
				295.206,415.753 292.654,414.684 287.668,414.684 290.22,415.753 			"/>
			
				<polygon style="fill:#FFFFFF;stroke:#263238;stroke-width:0.75;stroke-linecap:round;stroke-linejoin:round;stroke-miterlimit:10;" points="
				274.987,410.453 272.753,409.517 266.122,409.575 267.854,410.453 			"/>
			
				<polygon style="fill:#FFFFFF;stroke:#263238;stroke-width:0.75;stroke-linecap:round;stroke-linejoin:round;stroke-miterlimit:10;" points="
				288.825,413.081 283.839,413.081 285.294,413.69 290.28,413.69 			"/>
			
				<polygon style="fill:#FFFFFF;stroke:#263238;stroke-width:0.75;stroke-linecap:round;stroke-linejoin:round;stroke-miterlimit:10;" points="
				279.933,411.446 281.465,412.088 286.451,412.088 284.919,411.446 			"/>
			
				<polygon style="fill:#FFFFFF;stroke:#263238;stroke-width:0.75;stroke-linecap:round;stroke-linejoin:round;stroke-miterlimit:10;" points="
				282.722,413.69 281.266,413.081 273.044,413.081 274.247,413.69 			"/>
			
				<polygon style="fill:#FFFFFF;stroke:#263238;stroke-width:0.75;stroke-linecap:round;stroke-linejoin:round;stroke-miterlimit:10;" points="
				271.082,412.088 278.893,412.088 277.361,411.446 269.816,411.446 			"/>
			
				<polygon style="fill:#FFFFFF;stroke:#263238;stroke-width:0.75;stroke-linecap:round;stroke-linejoin:round;stroke-miterlimit:10;" points="
				285.096,414.684 276.209,414.684 278.318,415.753 287.648,415.753 			"/>
		</g>
		<polygon style="fill:#FFFFFF;stroke:#263238;stroke-linecap:round;stroke-linejoin:round;stroke-miterlimit:10;" points="
			276.462,419.662 274.542,419.662 237.77,366.643 239.594,366.094 263.66,366.094 		"/>
		<polygon style="fill:#FFFFFF;stroke:#263238;stroke-linecap:round;stroke-linejoin:round;stroke-miterlimit:10;" points="
			274.542,419.662 250.477,407.825 237.675,366.094 261.74,366.094 		"/>
	</g>
</g>
<g id="Characters_2">
	<g>
		<g>
			<path style="fill:#263238;stroke:#263238;stroke-linecap:round;stroke-linejoin:round;stroke-miterlimit:10;" d="
				M484.917,441.171v-64.283c0-0.954-0.774-1.728-1.728-1.728h-23.415c-0.954,0-1.728,0.774-1.728,1.728v64.283H484.917z"/>
			<path style="fill:#4C4C4C;stroke:#263238;stroke-linecap:round;stroke-linejoin:round;stroke-miterlimit:10;" d="M476.45,441.171
				v-64.283c0-0.954-0.774-1.728-1.728-1.728h-23.416c-0.954,0-1.728,0.774-1.728,1.728v64.283H476.45z"/>
		</g>
		<g>
			<g>
				<path style="fill:#92E3A9;stroke:#263238;stroke-linecap:round;stroke-linejoin:round;stroke-miterlimit:10;" d="
					M382.621,338.688c0,0-10.317,6.878-11.64,11.111c-1.323,4.233-8.995,28.306-9.788,30.158c-0.794,1.852-7.143,11.64-7.143,11.64
					l-33.861,1.587c0,0-15.344-3.439-16.666-3.439s-14.55,8.73-15.608,11.111c-1.058,2.381-3.439,5.82-2.381,6.614
					c1.058,0.794,2.645-0.529,2.645-0.529s0.529,3.704,7.143,2.381s13.227-6.085,13.227-6.085s8.201,3.968,11.375,3.174
					c0.092-0.023,0.174-0.055,0.264-0.079v3.518c0,0,44.708,2.381,46.56,1.852c1.852-0.529,11.64-12.434,11.64-12.434l11.375-61.374
					C389.764,337.895,389.235,332.075,382.621,338.688z"/>
				<path style="fill:#4C4C4C;stroke:#263238;stroke-linecap:round;stroke-linejoin:round;stroke-miterlimit:10;" d="
					M320.921,394.099l-0.643-0.919l-0.089,0.004c0,0-15.344-3.439-16.666-3.439s-14.55,8.73-15.608,11.111
					c-1.058,2.381-3.439,5.82-2.381,6.614c1.058,0.794,2.645-0.529,2.645-0.529s0.529,3.704,7.143,2.381
					c6.614-1.323,13.227-6.085,13.227-6.085s8.201,3.968,11.375,3.174c0.092-0.023,0.174-0.055,0.264-0.079v3.518L320.921,394.099z"
					/>
				<path style="fill:#92E3A9;stroke:#263238;stroke-linecap:round;stroke-linejoin:round;stroke-miterlimit:10;" d="
					M383.881,441.171h1.047c-0.811-1.917-1.519-3.684-1.806-4.64c-0.847-2.824-11.014-39.539-12.144-44.905
					c-1.13-5.366-0.565-12.991,2.259-23.723c2.824-10.732,9.383-29.215,9.383-29.215l-9.383,13.117c0,0-7.908,30.501-7.908,34.455
					c0,3.954,3.954,24.006,7.908,33.89C375.53,425.88,380.285,434.734,383.881,441.171z"/>
			</g>
			<path style="fill:#FFFFFF;stroke:#263238;stroke-linecap:round;stroke-linejoin:round;stroke-miterlimit:10;" d="
				M386.854,331.281c0,0-9.788,15.343-12.434,25.925c-2.645,10.582-4.762,19.841-4.762,29.364c0,9.523,10.582,36.507,12.169,39.946
				c1.587,3.439,18.783,4.497,24.073-11.904c5.291-16.402,7.672-63.755,4.497-74.601
				C407.223,329.165,393.467,324.138,386.854,331.281z"/>
			<path style="fill:#808080;stroke:#263238;stroke-linecap:round;stroke-linejoin:round;stroke-miterlimit:10;" d="M384.1,329.058
				c-0.651,0.977-9.44,5.859-9.44,5.859l-0.326,9.115l2.604-4.883l4.089,12.086l4.374-22.503L384.1,329.058z"/>
			<g>
				<path style="fill:#92E3A9;stroke:#263238;stroke-linecap:round;stroke-linejoin:round;stroke-miterlimit:10;" d="
					M385.084,441.171h72.026c-2.369-6.345-11.529-30.902-11.812-32.035c-0.326-1.302-7.813-59.245-15.625-69.987
					c-7.813-10.742-26.042-14.648-29.948-12.37c0,0-13.021,26.367-17.904,38.737c-4.883,12.37-8.138,36.784-8.138,40.365
					c0,3.581,6.836,26.042,6.836,26.042L385.084,441.171z"/>
				<polyline style="fill:none;stroke:#263238;stroke-linecap:round;stroke-linejoin:round;stroke-miterlimit:10;" points="
					436.944,421.796 405.811,431.07 407.798,435.044 425.02,429.745 				"/>
			</g>
			<g>
				<g>
					<path style="fill:#FFFFFF;stroke:#263238;stroke-linecap:round;stroke-linejoin:round;stroke-miterlimit:10;" d="
						M368.715,283.23c0,0-2.503,7.722-2.565,9.308c-0.062,1.586,0.105,3.548,0.105,3.548s0.084,0.981-0.438,1.816
						c-0.522,0.835-6.363,6.471-5.674,7.597c0.689,1.127,4.728,5.623,4.728,5.623s2.831,13.491,6.619,15.045
						c3.788,1.554,9.141,0.603,9.141,0.603l1.932,5.269l23.642-7.748l-0.367-7.773c0,0,2.376-13.836-0.35-23.779
						C402.762,282.795,379.115,271.969,368.715,283.23z"/>
					<path style="fill:#263238;" d="M369.465,299.089c-0.278,1.153-0.863,2.001-1.307,1.894c-0.444-0.107-0.578-1.128-0.3-2.282
						c0.278-1.153,0.863-2.001,1.307-1.894C369.609,296.914,369.743,297.936,369.465,299.089z"/>
					<path style="fill:#FFFFFF;stroke:#263238;stroke-linecap:round;stroke-linejoin:round;stroke-miterlimit:10;" d="
						M367.791,293.846c0,0,3.304-0.991,4.626,2.643"/>
					<path style="fill:#FFFFFF;stroke:#263238;stroke-linecap:round;stroke-linejoin:round;stroke-miterlimit:10;" d="
						M365.478,313.012c0,0,2.643,2.644,7.27,0.991"/>
				</g>
				<path style="fill:#263238;stroke:#263238;stroke-linecap:round;stroke-linejoin:round;stroke-miterlimit:10;" d="
					M383.204,264.31c0,0-2.088-5.947-8.819-7.25c-6.73-1.303-11.559,8.1-9.868,11.709c1.691,3.61,2.453,4.434-0.792,4.612
					c-3.245,0.178-9.441,8.61-3.962,13.774c5.479,5.164,12.061-2.215,12.386,0.425c0.324,2.64-0.562,4.988,2.61,5.112
					c3.172,0.124,8.379-0.221,7.565,1.824c-0.813,2.045-1,6.803,2.026,7.533c3.026,0.73,4.883-2.985,7.001-2.475
					c2.118,0.511,4.968,7.282,3.112,10.997c-1.856,3.715-3.14,3.726-3.359,4.633c-0.219,0.908,5.647,7.125,11.677,6.018
					c6.031-1.107,13.866-3.06,14.794-9.561c0.927-6.501-0.972-7.919,1.5-10.205c2.472-2.286,4.883-2.985,4.172-6.679
					c-0.71-3.693-2.985-4.882-2.256-7.909c0.73-3.026-2.331-16.892-15.291-22.9C392.739,257.964,383.204,264.31,383.204,264.31z"/>
			</g>
			<polygon style="fill:#FFFFFF;stroke:#263238;stroke-linecap:round;stroke-linejoin:round;stroke-miterlimit:10;" points="
				408.688,316.979 378.892,334.267 381.028,351.236 412.835,325.964 			"/>
			<g>
				<g>
					<path style="fill:#FFFFFF;stroke:#263238;stroke-linecap:round;stroke-linejoin:round;stroke-miterlimit:10;" d="
						M330.715,397.418c0,0-5.974-2.228-9.795-3.319c-6.524-1.864-12.633-4.645-14.912-3.994c-2.279,0.651-13.38,8.29-13.38,8.29
						s-3.906,9.44-3.581,10.742c0.326,1.302,2.714-0.792,2.714-0.792s-1.412,1.768-0.11,3.07c1.302,1.302,2.604-1.302,2.604-1.302
						s-0.326,3.255,1.628,2.93c1.953-0.326,2.136-1.769,2.136-1.769s0.143,1.769,1.77,1.769c1.628,0,5.208-6.836,5.208-6.836
						l6.185,0.326c0,0,4.883,2.604,7.813,2.93c2.93,0.326,6.51-1.628,6.51-1.628l3.906,0.977l3.255-9.44L330.715,397.418z"/>
					<path style="fill:none;stroke:#263238;stroke-linecap:round;stroke-linejoin:round;stroke-miterlimit:10;" d="M291.763,408.345
						c0,0,3.328-7.988,3.861-8.521c0.533-0.533,7.19-4.26,7.19-4.26"/>
					<path style="fill:none;stroke:#263238;stroke-linecap:round;stroke-linejoin:round;stroke-miterlimit:10;" d="M294.257,410.113
						c0,0,4.03-8.159,4.429-8.559c0.4-0.399,5.459-2.929,5.459-2.929"/>
					<path style="fill:none;stroke:#263238;stroke-linecap:round;stroke-linejoin:round;stroke-miterlimit:10;" d="M298.02,411.274
						c0,0,3.861-7.456,4.527-7.855c0.666-0.399,2.397-1.331,2.397-1.331"/>
				</g>
				<path style="fill:#92E3A9;stroke:#263238;stroke-linecap:round;stroke-linejoin:round;stroke-miterlimit:10;" d="
					M416.978,338.498c0,0-20.508,13.346-20.182,18.555c0.326,5.208,1.953,5.208,1.953,5.208l-10.417,39.063
					c0,0-3.255-2.604-3.581,0.651c-0.326,3.255-0.326,3.255-0.326,3.255l-54.362-9.115l-5.534,13.672
					c0,0,22.461,8.789,38.086,14.323c15.625,5.534,31.901,11.719,33.529,8.789c1.628-2.93,33.854-51.107,35.807-54.688
					c1.953-3.581,1.953-10.091,1.953-10.091"/>
				<path style="fill:none;stroke:#263238;stroke-linecap:round;stroke-linejoin:round;stroke-miterlimit:10;" d="M398.749,362.261
					c0,0,6.185-12.695,21.159-13.672"/>
			</g>
		</g>
	</g>
</g>
</svg>
