<?xml version="1.0" encoding="utf-8"?>
<!-- Generator: Adobe Illustrator 27.5.0, SVG Export Plug-In . SVG Version: 6.00 Build 0)  -->
<svg version="1.1" xmlns="http://www.w3.org/2000/svg" xmlns:xlink="http://www.w3.org/1999/xlink" x="0px" y="0px"
	 viewBox="0 0 750 500" style="enable-background:new 0 0 750 500;" xml:space="preserve">
<g id="Background_Simple">
	<g>
		<path style="fill:#92E3A9;" d="M673.897,209.621c-37.326-32.453-81.99-54.477-126.275-75.753
			c-49.647-23.852-101.468-47.658-154.652-62.353c-17.72-4.892-35.738-8.746-53.965-11.179
			c-80.138-10.695-156.824,43.542-212.305,95.253c-22.132,20.628-42.792,42.935-61.509,66.715
			c-13.668,17.365-29.984,35.934-35.749,58.174c-6.773,26.127,7.379,48.017,21.49,68.807c11.311,16.665,23.047,32.377,37.228,46.787
			c32.706,33.236,73.242,58.728,117.348,73.82c82.126,28.104,173.304,17.443,257.663,7.259c4.758-0.574,9.512-1.173,14.264-1.792
			c52.085-6.792,103.837-11.391,153.435-30.372c71.978-27.546,120.498-108.427,84.464-182.964
			C705.466,241.612,690.977,224.471,673.897,209.621z"/>
		<path style="opacity:0.7;fill:#FFFFFF;" d="M673.897,209.621c-37.326-32.453-81.99-54.477-126.275-75.753
			c-49.647-23.852-101.468-47.658-154.652-62.353c-17.72-4.892-35.738-8.746-53.965-11.179
			c-80.138-10.695-156.824,43.542-212.305,95.253c-22.132,20.628-42.792,42.935-61.509,66.715
			c-13.668,17.365-29.984,35.934-35.749,58.174c-6.773,26.127,7.379,48.017,21.49,68.807c11.311,16.665,23.047,32.377,37.228,46.787
			c32.706,33.236,73.242,58.728,117.348,73.82c82.126,28.104,173.304,17.443,257.663,7.259c4.758-0.574,9.512-1.173,14.264-1.792
			c52.085-6.792,103.837-11.391,153.435-30.372c71.978-27.546,120.498-108.427,84.464-182.964
			C705.466,241.612,690.977,224.471,673.897,209.621z"/>
	</g>
</g>
<g id="Floor">
	
		<line style="fill:none;stroke:#263238;stroke-linecap:round;stroke-linejoin:round;stroke-miterlimit:10;" x1="42.532" y1="462.124" x2="729.203" y2="462.124"/>
</g>
<g id="Clock">
	<g>
		
			<circle style="fill:none;stroke:#263238;stroke-linecap:round;stroke-linejoin:round;stroke-miterlimit:10;" cx="109.317" cy="131.038" r="33.85"/>
		
			<ellipse transform="matrix(0.9732 -0.2298 0.2298 0.9732 -27.1819 28.6212)" style="fill:none;stroke:#263238;stroke-linecap:round;stroke-linejoin:round;stroke-miterlimit:10;" cx="109.317" cy="131.037" rx="29.943" ry="29.943"/>
		
			<circle style="fill:#263238;stroke:#263238;stroke-linecap:round;stroke-linejoin:round;stroke-miterlimit:10;" cx="109.317" cy="131.038" r="2.86"/>
		<polyline style="fill:none;stroke:#263238;stroke-linecap:round;stroke-linejoin:round;stroke-miterlimit:10;" points="
			119.739,136.133 109.317,131.038 91.942,150.031 		"/>
	</g>
</g>
<g id="Picture">
	<g>
		
			<rect x="628.285" y="96.054" style="fill:none;stroke:#263238;stroke-linecap:round;stroke-linejoin:round;stroke-miterlimit:10;" width="84.563" height="105.342"/>
		
			<rect x="631.049" y="99.497" style="fill:none;stroke:#263238;stroke-linecap:round;stroke-linejoin:round;stroke-miterlimit:10;" width="79.035" height="98.455"/>
		
			<rect x="654.318" y="128.485" style="fill:none;stroke:#263238;stroke-linecap:round;stroke-linejoin:round;stroke-miterlimit:10;" width="32.496" height="40.481"/>
	</g>
</g>
<g id="Lamps">
	<g>
		
			<line style="fill:none;stroke:#263238;stroke-linecap:round;stroke-linejoin:round;stroke-miterlimit:10;" x1="391.593" y1="39.121" x2="391.593" y2="7.502"/>
		<polygon style="fill:#263238;" points="417.697,56.034 365.489,56.034 381.151,36.18 402.035,36.18 		"/>
	</g>
	<g>
		
			<line style="fill:none;stroke:#263238;stroke-linecap:round;stroke-linejoin:round;stroke-miterlimit:10;" x1="676.075" y1="39.121" x2="676.075" y2="7.502"/>
		<polygon style="fill:#263238;" points="702.179,56.034 649.971,56.034 665.633,36.18 686.517,36.18 		"/>
	</g>
	<g>
		
			<line style="fill:none;stroke:#263238;stroke-linecap:round;stroke-linejoin:round;stroke-miterlimit:10;" x1="107.111" y1="39.121" x2="107.111" y2="7.502"/>
		<polygon style="fill:#263238;" points="133.215,56.034 81.007,56.034 96.669,36.18 117.553,36.18 		"/>
	</g>
</g>
<g id="Plant">
	<g>
		<g>
			<g>
				<path style="fill:#263238;" d="M99.382,321.271l0.002-0.006c0.019-0.049-0.004-0.104-0.052-0.125
					c-0.049-0.021-0.107,0.001-0.128,0.051c-2.947,6.806-5.019,13.95-6.749,21.156c-1.669,7.226-2.878,14.557-3.724,21.933
					l-0.527,5.544c-0.082,0.924-0.182,1.848-0.249,2.774l-0.151,2.781c-0.08,1.855-0.194,3.71-0.246,5.566l0.05,5.571l0.062,2.784
					c0.041,0.927,0.108,1.854,0.171,2.78c0.141,1.852,0.253,3.704,0.423,5.552c0.355,3.693,0.91,7.367,1.482,11.024
					c0.007,0.047,0.048,0.083,0.097,0.082c0.054,0,0.098-0.044,0.097-0.098v-0.005c-0.01-1.857-0.088-3.704-0.13-5.552
					c-0.053-1.847-0.214-3.684-0.188-5.532c0.008-1.846-0.04-3.688-0.06-5.53l-0.051-2.761l0.049-2.762l0.025-5.52l0.15-5.517
					l0.057-2.761c0.035-0.92,0.104-1.837,0.155-2.756l0.339-5.514c0.646-7.337,1.654-14.649,3.123-21.875
					C94.874,335.337,96.688,328.146,99.382,321.271z"/>
				<path style="fill:#263238;" d="M100.173,350.138c0.014-0.049-0.012-0.105-0.061-0.122c-0.051-0.018-0.107,0.009-0.124,0.06
					c-1.589,4.587-2.857,9.279-3.929,14.02c-1.025,4.749-1.83,9.561-2.32,14.409c-0.49,4.831-1.031,9.667-1.097,14.525
					c-0.075,4.855,0.003,9.716,0.516,14.566c0.005,0.045,0.041,0.082,0.087,0.087c0.054,0.006,0.102-0.033,0.108-0.087
					c0.561-4.836,0.903-9.66,1.238-14.483c0.342-4.82,0.388-9.655,0.702-14.477c0.292-4.807,0.895-9.596,1.722-14.352
					C97.826,359.526,98.837,354.787,100.173,350.138z"/>
				<path style="fill:#263238;" d="M116.176,360.293c-0.029-0.045-0.089-0.059-0.135-0.03c-4.006,2.536-7.579,5.73-10.701,9.329
					c-1.535,1.826-2.961,3.738-4.184,5.818l-0.86,1.623l-0.673,1.686c-0.242,0.559-0.412,1.135-0.587,1.709
					c-0.173,0.575-0.366,1.148-0.522,1.727c-1.202,4.638-1.998,9.365-2.214,14.116c-0.193,4.748-0.103,9.504,0.531,14.218
					c0.007,0.044,0.044,0.081,0.09,0.085c0.054,0.004,0.101-0.037,0.105-0.091l1.219-14.074c0.486-4.653,0.784-9.333,1.783-13.877
					c0.127-0.566,0.29-1.119,0.433-1.68c0.145-0.561,0.286-1.124,0.493-1.658l0.571-1.627l0.735-1.536
					c1.084-2.033,2.409-3.978,3.834-5.822c2.858-3.688,6.22-7.05,10.048-9.779l0.005-0.004
					C116.193,360.394,116.204,360.337,116.176,360.293z"/>
				<path style="fill:#263238;" d="M108.431,378.375c-2.181,1.408-3.64,3.622-4.866,5.849c-1.169,2.277-2.09,4.691-2.727,7.167
					c-0.192,0.613-0.343,1.234-0.476,1.859l-0.441,1.871c-0.225,1.257-0.401,2.527-0.473,3.801
					c-0.017,1.277-0.053,2.552,0.033,3.825c0.106,1.273,0.251,2.542,0.502,3.801c0.009,0.036,0.039,0.07,0.078,0.078
					c0.054,0.011,0.106-0.024,0.117-0.078c0.308-1.256,0.51-2.5,0.674-3.742c0.198-1.239,0.391-2.47,0.539-3.702
					c0.181-1.227,0.343-2.451,0.439-3.687c0.172-1.22,0.262-2.467,0.529-3.672c0.428-2.44,1.134-4.822,2.087-7.099
					c0.949-2.259,2.185-4.51,4.086-6.102l0.015-0.013c0.037-0.031,0.046-0.085,0.019-0.126
					C108.536,378.359,108.476,378.346,108.431,378.375z"/>
				<path style="fill:#263238;" d="M85.987,392.472c-0.526-6.248-1.557-12.433-2.531-18.616c-0.977-6.183-2.054-12.348-3.185-18.501
					c-1.171-6.146-2.396-12.28-3.721-18.393c-0.011-0.051-0.061-0.085-0.113-0.075c-0.053,0.009-0.088,0.06-0.079,0.113
					c1.069,6.159,2.037,12.335,2.951,18.517c0.938,6.178,1.82,12.363,2.602,18.559c0.764,6.199,1.359,12.412,2.136,18.6
					l2.285,18.599c0.006,0.047,0.044,0.084,0.093,0.086c0.054,0.003,0.1-0.039,0.102-0.093c0.071-1.567,0.073-3.134,0.112-4.705
					c0.014-1.57-0.064-3.134-0.092-4.703C86.49,398.721,86.222,395.598,85.987,392.472z"/>
				<path style="fill:#263238;" d="M82.24,392.382c-0.334-2.475-0.789-4.935-1.261-7.387l-0.877-3.648
					c-0.287-1.216-0.56-2.435-0.916-3.635c-1.247-4.84-2.84-9.598-4.775-14.208l-0.75-1.719l-0.833-1.682
					c-0.529-1.133-1.17-2.212-1.777-3.303c-1.306-2.128-2.662-4.254-4.509-5.979c-0.038-0.035-0.097-0.035-0.134,0.001
					c-0.038,0.037-0.039,0.099-0.002,0.138l0.009,0.01c1.708,1.77,2.952,3.956,4.125,6.115c0.543,1.111,1.118,2.203,1.582,3.35
					l0.734,1.7l0.651,1.736c1.731,4.625,3.119,9.38,4.163,14.212c0.569,2.404,0.947,4.854,1.413,7.277l0.585,3.662
					c0.212,1.218,0.472,2.426,0.644,3.652c0.39,2.443,0.839,4.879,1.266,7.323c0.379,2.451,0.826,4.897,1.343,7.346
					c0.009,0.044,0.049,0.081,0.096,0.081c0.054,0,0.098-0.043,0.098-0.097c0.011-2.496-0.047-4.994-0.174-7.488
					C82.795,397.347,82.5,394.867,82.24,392.382z"/>
				<path style="fill:#263238;" d="M77.07,392.701c-1.158-3.278-2.497-6.487-3.957-9.633c-1.498-3.129-3.115-6.199-4.976-9.123
					c-0.029-0.041-0.088-0.058-0.132-0.032c-0.046,0.027-0.062,0.087-0.034,0.134c1.626,3.036,3.001,6.204,4.247,9.408
					c1.268,3.195,2.411,6.438,3.369,9.732c0.977,3.29,1.677,6.645,2.553,9.95c0.92,3.303,1.665,6.64,2.681,9.985
					c0.012,0.04,0.049,0.072,0.093,0.072c0.054,0.001,0.099-0.043,0.1-0.097c0.049-3.49-0.293-6.978-0.972-10.394
					C79.429,399.266,78.221,395.977,77.07,392.701z"/>
				<path style="fill:#263238;" d="M76.856,403.62c-0.592-2.053-1.603-3.965-2.75-5.767c-1.127-1.811-2.435-3.524-4.003-4.974
					c-0.807-0.7-1.633-1.373-2.546-1.921c-0.899-0.562-1.854-1.037-2.888-1.306c-0.045-0.012-0.093,0.01-0.113,0.054
					c-0.022,0.049,0,0.106,0.049,0.128l0.012,0.005c1.872,0.832,3.454,2.212,4.791,3.722c1.355,1.512,2.437,3.247,3.338,5.054
					c0.948,1.795,1.438,3.778,2.263,5.627c0.364,0.948,0.725,1.902,1.146,2.848c0.357,0.966,0.753,1.929,1.256,2.887l0.003,0.005
					c0.016,0.03,0.047,0.052,0.084,0.053c0.055,0.002,0.102-0.04,0.104-0.096c0.045-1.069-0.018-2.133-0.119-3.193
					C77.328,405.698,77.106,404.656,76.856,403.62z"/>
			</g>
			<path style="fill:#92E3A9;" d="M77.242,345.907c0,0-10.238-2.362-12.6-13.388c-2.363-11.025,5.25-6.3-1.575-23.626
				c-6.825-17.326-5.25-21.263-2.888-26.251c2.363-4.988,3.675-3.413,5.775,3.15c2.1,6.563,9.713,16.8,12.601,35.964
				C81.442,340.919,77.242,345.907,77.242,345.907z"/>
			<path style="fill:#92E3A9;" d="M97.455,327.269c0,0-6.825-2.363-7.088-15.226c-0.262-12.863,4.988-10.238,5.775-26.251
				c0.787-16.013,1.838-27.301,4.725-27.564c2.888-0.263,10.501,7.875,13.126,25.726c2.625,17.851-3.413,29.663-8.663,34.914
				C100.08,324.119,97.455,327.269,97.455,327.269z"/>
			<path style="fill:#92E3A9;" d="M73.567,361.395c0,0-1.575-9.45-4.725-13.913c-3.15-4.463-9.976-8.401-14.438-17.063
				c-4.462-8.663-9.45-12.863-9.188-0.525c0.263,12.338,5.775,18.638,12.601,22.838C64.642,356.933,73.567,361.395,73.567,361.395z"
				/>
			<path style="fill:#92E3A9;" d="M70.679,377.671c0,0-6.3-12.075-15.488-21.001c-9.188-8.925-16.538-13.388-13.913-8.925
				c2.625,4.463,5.775,4.2,10.238,12.076c4.463,7.875,3.15,13.65,9.45,18.113C67.267,382.396,70.679,377.671,70.679,377.671z"/>
			<path style="fill:#92E3A9;" d="M69.892,393.159c-0.262-0.787-0.525-6.563-9.45-11.288c-8.926-4.725-17.326-2.887-16.276-0.525
				c1.05,2.363,6.563,6.3,12.076,8.663C61.754,392.372,69.892,393.159,69.892,393.159z"/>
			<path style="fill:#92E3A9;" d="M96.93,361.92c0,0-3.938-4.988-1.838-15.488c2.1-10.501,6.825-7.876,12.076-13.388
				c5.25-5.513,4.2-6.3,9.45-12.075c5.25-5.775,9.976-8.925,12.076-6.563c2.1,2.363-1.05,9.713-4.2,13.913
				c-3.15,4.2-8.138,6.3-10.5,11.55c-2.363,5.25-1.313,13.651-7.35,17.588C100.606,361.395,96.93,361.92,96.93,361.92z"/>
			<path style="fill:#92E3A9;" d="M110.056,364.808c0,0,9.451-10.763,16.276-18.638c6.825-7.875,9.45-13.913,9.713-8.663
				c0.262,5.25,2.363,9.45-3.15,16.276C127.382,360.608,110.056,364.808,110.056,364.808z"/>
			<path style="fill:#92E3A9;" d="M105.068,382.134c0,0-0.262-4.2,14.701-13.913c14.963-9.713,21.263-11.55,19.688-7.613
				c-1.575,3.938-8.138,7.875-15.226,14.963C117.144,382.659,105.068,382.134,105.068,382.134z"/>
			<path style="fill:none;stroke:#263238;stroke-width:0.5;stroke-linecap:round;stroke-linejoin:round;stroke-miterlimit:10;" d="
				M77.866,344.789c0,0-3.512-18.832-7.187-32.22c-3.675-13.388-6.038-21.526-6.038-21.526"/>
			<path style="fill:none;stroke:#263238;stroke-width:0.5;stroke-linecap:round;stroke-linejoin:round;stroke-miterlimit:10;" d="
				M96.851,327.467c0,0,6.38-20.411,8.48-32.75c2.1-12.338-0.263-21.526-1.313-27.038"/>
			<path style="fill:none;stroke:#263238;stroke-width:0.5;stroke-linecap:round;stroke-linejoin:round;stroke-miterlimit:10;" d="
				M72.739,361.001c0,0-3.898-6.956-9.673-13.782c-5.775-6.825-10.238-10.5-12.863-17.063"/>
			<path style="fill:none;stroke:#263238;stroke-width:0.5;stroke-linecap:round;stroke-linejoin:round;stroke-miterlimit:10;" d="
				M96.93,361.92c0,0,2.1-12.601,7.088-19.163c4.988-6.563,14.963-16.801,18.901-23.363"/>
			<path style="fill:none;stroke:#263238;stroke-width:0.5;stroke-linecap:round;stroke-linejoin:round;stroke-miterlimit:10;" d="
				M69.275,392.873c0,0-8.833-5.751-15.134-8.901"/>
		</g>
		<polygon style="fill:#263238;stroke:#263238;stroke-linecap:round;stroke-linejoin:round;stroke-miterlimit:10;" points="
			100.853,462.124 76.132,462.124 70.835,403.43 106.151,403.43 		"/>
	</g>
</g>
<g id="Board">
	<g>
		<g>
			
				<rect x="256.318" y="105.638" style="fill:#263238;stroke:#263238;stroke-linecap:round;stroke-linejoin:round;stroke-miterlimit:10;" width="247.364" height="169.701"/>
			
				<rect x="260.246" y="109.733" style="fill:#FFFFFF;stroke:#263238;stroke-linecap:round;stroke-linejoin:round;stroke-miterlimit:10;" width="239.508" height="161.513"/>
		</g>
		<g>
			<rect x="346.015" y="150.638" style="fill:#92E3A9;" width="35.203" height="28.224"/>
			<rect x="382.433" y="179.317" style="fill:#92E3A9;" width="35.203" height="28.224"/>
			<rect x="346.015" y="235.764" style="fill:#92E3A9;" width="35.203" height="28.224"/>
			<rect x="419.305" y="122.87" style="fill:#92E3A9;" width="35.203" height="28.224"/>
			<g>
				
					<line style="fill:none;stroke:#263238;stroke-linecap:round;stroke-linejoin:round;stroke-miterlimit:10;" x1="272.875" y1="126.967" x2="272.875" y2="263.988"/>
				
					<line style="fill:none;stroke:#263238;stroke-linecap:round;stroke-linejoin:round;stroke-miterlimit:10;" x1="309.141" y1="126.967" x2="309.141" y2="263.988"/>
				
					<line style="fill:none;stroke:#263238;stroke-linecap:round;stroke-linejoin:round;stroke-miterlimit:10;" x1="345.407" y1="126.967" x2="345.407" y2="263.988"/>
				
					<line style="fill:none;stroke:#263238;stroke-linecap:round;stroke-linejoin:round;stroke-miterlimit:10;" x1="381.673" y1="126.967" x2="381.673" y2="263.988"/>
				
					<line style="fill:none;stroke:#263238;stroke-linecap:round;stroke-linejoin:round;stroke-miterlimit:10;" x1="417.939" y1="126.967" x2="417.939" y2="263.988"/>
				
					<line style="fill:none;stroke:#263238;stroke-linecap:round;stroke-linejoin:round;stroke-miterlimit:10;" x1="454.205" y1="126.967" x2="454.205" y2="263.988"/>
				
					<line style="fill:none;stroke:#263238;stroke-linecap:round;stroke-linejoin:round;stroke-miterlimit:10;" x1="490.47" y1="126.967" x2="490.47" y2="263.988"/>
				
					<line style="fill:none;stroke:#263238;stroke-linecap:round;stroke-linejoin:round;stroke-miterlimit:10;" x1="273.786" y1="150.638" x2="490.926" y2="150.638"/>
				
					<line style="fill:none;stroke:#263238;stroke-linecap:round;stroke-linejoin:round;stroke-miterlimit:10;" x1="273.786" y1="178.862" x2="490.926" y2="178.862"/>
				
					<line style="fill:none;stroke:#263238;stroke-linecap:round;stroke-linejoin:round;stroke-miterlimit:10;" x1="273.786" y1="207.086" x2="490.926" y2="207.086"/>
				
					<line style="fill:none;stroke:#263238;stroke-linecap:round;stroke-linejoin:round;stroke-miterlimit:10;" x1="273.786" y1="235.309" x2="490.926" y2="235.309"/>
				<g>
					
						<line style="fill:none;stroke:#263238;stroke-linecap:round;stroke-linejoin:round;stroke-miterlimit:10;" x1="351.173" y1="155.646" x2="373.024" y2="155.646"/>
					
						<line style="fill:none;stroke:#263238;stroke-linecap:round;stroke-linejoin:round;stroke-miterlimit:10;" x1="351.173" y1="159.288" x2="373.024" y2="159.288"/>
					
						<line style="fill:none;stroke:#263238;stroke-linecap:round;stroke-linejoin:round;stroke-miterlimit:10;" x1="351.173" y1="162.929" x2="373.024" y2="162.929"/>
					
						<line style="fill:none;stroke:#263238;stroke-linecap:round;stroke-linejoin:round;stroke-miterlimit:10;" x1="351.173" y1="166.571" x2="373.024" y2="166.571"/>
					
						<line style="fill:none;stroke:#263238;stroke-linecap:round;stroke-linejoin:round;stroke-miterlimit:10;" x1="351.173" y1="170.213" x2="373.024" y2="170.213"/>
				</g>
				<g>
					
						<line style="fill:none;stroke:#263238;stroke-linecap:round;stroke-linejoin:round;stroke-miterlimit:10;" x1="389.412" y1="186.145" x2="411.262" y2="186.145"/>
					
						<line style="fill:none;stroke:#263238;stroke-linecap:round;stroke-linejoin:round;stroke-miterlimit:10;" x1="389.412" y1="189.787" x2="411.262" y2="189.787"/>
					
						<line style="fill:none;stroke:#263238;stroke-linecap:round;stroke-linejoin:round;stroke-miterlimit:10;" x1="389.412" y1="193.429" x2="411.262" y2="193.429"/>
					
						<line style="fill:none;stroke:#263238;stroke-linecap:round;stroke-linejoin:round;stroke-miterlimit:10;" x1="389.412" y1="197.071" x2="411.262" y2="197.071"/>
					
						<line style="fill:none;stroke:#263238;stroke-linecap:round;stroke-linejoin:round;stroke-miterlimit:10;" x1="389.412" y1="200.712" x2="411.262" y2="200.712"/>
				</g>
				<g>
					
						<line style="fill:none;stroke:#263238;stroke-linecap:round;stroke-linejoin:round;stroke-miterlimit:10;" x1="352.084" y1="242.137" x2="373.934" y2="242.137"/>
					
						<line style="fill:none;stroke:#263238;stroke-linecap:round;stroke-linejoin:round;stroke-miterlimit:10;" x1="352.084" y1="245.779" x2="373.934" y2="245.779"/>
					
						<line style="fill:none;stroke:#263238;stroke-linecap:round;stroke-linejoin:round;stroke-miterlimit:10;" x1="352.084" y1="249.421" x2="373.934" y2="249.421"/>
					
						<line style="fill:none;stroke:#263238;stroke-linecap:round;stroke-linejoin:round;stroke-miterlimit:10;" x1="352.084" y1="253.063" x2="373.934" y2="253.063"/>
					
						<line style="fill:none;stroke:#263238;stroke-linecap:round;stroke-linejoin:round;stroke-miterlimit:10;" x1="352.084" y1="256.704" x2="373.934" y2="256.704"/>
				</g>
				<g>
					
						<line style="fill:none;stroke:#263238;stroke-linecap:round;stroke-linejoin:round;stroke-miterlimit:10;" x1="424.464" y1="130.609" x2="446.314" y2="130.609"/>
					
						<line style="fill:none;stroke:#263238;stroke-linecap:round;stroke-linejoin:round;stroke-miterlimit:10;" x1="424.464" y1="134.25" x2="446.314" y2="134.25"/>
					
						<line style="fill:none;stroke:#263238;stroke-linecap:round;stroke-linejoin:round;stroke-miterlimit:10;" x1="424.464" y1="137.892" x2="446.314" y2="137.892"/>
					
						<line style="fill:none;stroke:#263238;stroke-linecap:round;stroke-linejoin:round;stroke-miterlimit:10;" x1="424.464" y1="141.534" x2="446.314" y2="141.534"/>
					
						<line style="fill:none;stroke:#263238;stroke-linecap:round;stroke-linejoin:round;stroke-miterlimit:10;" x1="424.464" y1="145.176" x2="446.314" y2="145.176"/>
				</g>
			</g>
		</g>
	</g>
</g>
<g id="Chair_2">
	<g>
		
			<rect x="674.811" y="340.497" transform="matrix(-1 -1.224647e-16 1.224647e-16 -1 1360.2947 699.9387)" style="fill:#263238;stroke:#263238;stroke-linecap:round;stroke-linejoin:round;stroke-miterlimit:10;" width="10.674" height="18.945"/>
		<path style="fill:#949494;stroke:#263238;stroke-linecap:round;stroke-linejoin:round;stroke-miterlimit:10;" d="M670.018,346.259
			h21.903c8.633,0,15.632-6.999,15.632-15.632v-50.071c0-8.633-6.999-15.632-15.632-15.632h-21.903
			c-8.633,0-15.632,6.999-15.632,15.632v50.071C654.386,339.26,661.384,346.259,670.018,346.259z"/>
		<g>
			<path style="fill:#263238;stroke:#263238;stroke-linecap:round;stroke-linejoin:round;stroke-miterlimit:10;" d="
				M696.906,458.726c0-2.493,2.021-4.515,4.515-4.515c2.493,0,4.515,2.021,4.515,4.515c0,2.493-2.021,4.515-4.515,4.515
				C698.927,463.241,696.906,461.219,696.906,458.726z"/>
			<path style="fill:#263238;stroke:#263238;stroke-linecap:round;stroke-linejoin:round;stroke-miterlimit:10;" d="
				M608.696,458.726c0-2.493,2.021-4.515,4.515-4.515c2.493,0,4.515,2.021,4.515,4.515c0,2.493-2.021,4.515-4.515,4.515
				C610.718,463.241,608.696,461.219,608.696,458.726z"/>
			<path style="fill:#263238;stroke:#263238;stroke-linecap:round;stroke-linejoin:round;stroke-miterlimit:10;" d="
				M655.123,458.726c0-2.493,0.939-4.515,2.098-4.515c1.159,0,2.098,2.021,2.098,4.515c0,2.493-0.939,4.515-2.098,4.515
				C656.062,463.241,655.123,461.219,655.123,458.726z"/>
			<polygon style="fill:#263238;stroke:#263238;stroke-linecap:round;stroke-linejoin:round;stroke-miterlimit:10;" points="
				653.112,434.222 653.112,369.5 661.974,369.5 661.974,434.487 705.71,451.786 705.71,456.134 699.354,456.134 699.354,452.455 
				657.208,443.758 615.062,452.455 615.062,456.134 608.706,456.134 608.706,451.786 			"/>
			<polygon style="fill:#263238;stroke:#263238;stroke-linecap:round;stroke-linejoin:round;stroke-miterlimit:10;" points="
				659.438,456.121 655.004,456.121 654.054,435.111 660.387,435.111 			"/>
		</g>
		
			<rect x="646.287" y="367.033" transform="matrix(-1 -1.224647e-16 1.224647e-16 -1 1315.109 747.4456)" style="fill:#263238;stroke:#263238;stroke-linecap:round;stroke-linejoin:round;stroke-miterlimit:10;" width="22.534" height="13.38"/>
		<path style="fill:#949494;stroke:#263238;stroke-linecap:round;stroke-linejoin:round;stroke-miterlimit:10;" d="M624.032,371.962
			h69.158c3.265,0,5.912-2.647,5.912-5.912v-5.428c0-3.265-2.647-5.912-5.912-5.912h-69.158c-3.265,0-5.912,2.647-5.912,5.912v5.428
			C618.119,369.315,620.766,371.962,624.032,371.962z"/>
	</g>
</g>
<g id="Character_4">
	<g>
		<g>
			<path style="fill:#FFFFFF;stroke:#263238;stroke-linecap:round;stroke-linejoin:round;stroke-miterlimit:10;" d="
				M589.716,440.642c0,0-3.909,5.646-9.555,8.904c-5.646,3.257-14.332,4.56-14.332,6.298s0.651,4.777,7.166,5.646
				c6.515,0.869,34.745,1.303,38.437,0.434c3.692-0.869,0.217-19.11,0.217-19.11S594.494,443.682,589.716,440.642z"/>
			<path style="fill:#FFFFFF;stroke:#263238;stroke-linecap:round;stroke-linejoin:round;stroke-miterlimit:10;" d="
				M572.995,461.489c6.515,0.869,34.745,1.303,38.437,0.434c0.942-0.222,1.415-1.577,1.601-3.469
				c-7.871,0.242-23.221,0.48-32.438-0.005c-12.378-0.652-14.767-2.606-14.767-2.606C565.829,457.58,566.48,460.621,572.995,461.489
				z"/>
		</g>
		<path style="fill:#263238;stroke:#263238;stroke-linecap:round;stroke-linejoin:round;stroke-miterlimit:10;" d="M570.172,270.824
			c0,0,1.737,25.625,3.257,36.483c1.52,10.858,7.166,55.158,10.858,66.668c3.692,11.509,7.601,61.022,7.601,61.022
			s-4.126,1.52-3.909,3.257c0.217,1.737,0.434,4.343,0.434,4.343s8.469,4.56,13.464,4.56c4.995,0,11.292-2.172,11.292-2.172
			s-1.303-19.327-1.955-34.528c-0.651-15.201-6.949-79.915-6.949-79.915l-1.303-64.496L570.172,270.824z"/>
		<g>
			<path style="fill:#FFFFFF;stroke:#263238;stroke-linecap:round;stroke-linejoin:round;stroke-miterlimit:10;" d="
				M606.872,445.419c0,0,0.434,4.126-10.424,7.818c-10.858,3.692-12.161,7.601-10.858,10.858c1.303,3.257,23.888,3.257,32.357,1.954
				c8.469-1.303,12.812-1.737,13.464-3.475c0.651-1.737-1.737-14.984-1.737-14.984L606.872,445.419z"/>
			<path style="fill:#FFFFFF;stroke:#263238;stroke-linecap:round;stroke-linejoin:round;stroke-miterlimit:10;" d="
				M631.411,462.575c0.134-0.358,0.138-1.208,0.062-2.326c-2.97,0.549-6.953,1.301-12.223,2.326
				c-11.602,2.256-26.903,0.925-34.029,0.088c0.06,0.488,0.184,0.967,0.37,1.432c1.303,3.257,23.887,3.257,32.357,1.954
				C626.416,464.747,630.759,464.312,631.411,462.575z"/>
		</g>
		<path style="fill:#263238;stroke:#263238;stroke-linecap:round;stroke-linejoin:round;stroke-miterlimit:10;" d="M577.99,277.121
			l6.298,7.6c0,0,4.777,52.552,6.515,66.233s9.989,62.542,9.989,62.542l5.212,26.059c0,0-0.869,2.172-1.303,3.257
			c-0.434,1.086-0.217,3.474,0,4.343c0.217,0.869-0.217,1.52,8.035,2.823c8.252,1.303,16.504,0,16.504,0s1.086-2.606,1.086-6.08
			c0-3.475,0-4.995-0.651-8.469c-0.651-3.475,0-21.933-4.777-41.695c-4.778-19.761-8.252-42.563-8.252-50.164
			c0-7.6,0.217-52.118,0.434-52.987c0.217-0.869,4.343-3.692,4.56-11.727c0.217-8.035-0.869-11.075-0.869-11.075h-42.346"/>
		<path style="fill:#92E3A9;stroke:#263238;stroke-linecap:round;stroke-linejoin:round;stroke-miterlimit:10;" d="M577.772,169.628
			c0,0-9.772,24.322-10.424,40.392c-0.651,16.07,0,38.871,0.217,39.74c0.217,0.869-2.389,19.11-0.869,21.933
			c1.52,2.823,4.126,1.954,4.126,1.954s47.558,0.651,49.729,0.217c2.172-0.434,2.606-3.257,3.04-5.429
			c0.434-2.172-1.303-28.014-1.303-31.922c0-3.909,1.303-47.558-4.126-59.719c-5.429-12.161-18.893-22.15-20.63-22.584
			C595.797,153.775,581.681,158.553,577.772,169.628z"/>
		<g>
			<path style="fill:#FFFFFF;stroke:#263238;stroke-linecap:round;stroke-linejoin:round;stroke-miterlimit:10;" d="M554.018,121.8
				c0,0-1.661,7.975-1.163,8.639c0.498,0.665,2.16,3.821,2.16,3.821l-4.32,11.796l5.15,1.495l7.31,12.626l11.297-3.157l3.323,15.118
				c0,0-0.498,5.482,1.994,3.987c2.492-1.495,4.652-3.157,9.47-11.464c4.818-8.307,9.636-9.636,9.636-9.636
				s-5.981-7.975-7.144-10.467c-1.163-2.492-0.498-6.646-2.492-16.78c-1.994-10.134-8.805-12.294-18.109-12.294
				C561.826,115.487,554.848,117.314,554.018,121.8z"/>
			<path style="fill:#263238;stroke:#263238;stroke-linecap:round;stroke-linejoin:round;stroke-miterlimit:10;" d="M558.669,112.33
				c0,0-7.476,1.661-8.805,3.157c-1.329,1.495,0.664,6.147,2.492,7.144c1.828,0.997,13.623-1.661,13.457-0.831
				c-0.166,0.831-1.994,2.99,0,3.821c1.994,0.831,9.968,2.991,9.968,2.991l-1.994,15.285c0,0-9.802-0.498-12.128,0
				c-2.326,0.499-5.815,3.655-5.815,3.655s4.32,13.125,5.15,14.454c0.831,1.329,3.157,0.997,5.815,0
				c2.658-0.997,13.457-8.805,14.62-9.802c1.163-0.997-1.329-10.799-1.329-10.799s0.332-8.141,0.332-9.802
				c0-1.661,2.16-1.661,3.655-0.498c1.495,1.163,1.994,5.649,1.661,7.31c-0.332,1.661-2.16,3.323-2.16,3.323
				s6.313,4.818,7.642,4.818s1.661-0.831,1.828-1.329c0.166-0.498-0.166-14.786-0.166-14.786s0.332-13.623-1.495-17.943
				c-1.828-4.32-10.467-5.483-15.949-4.652C569.967,108.675,558.669,112.33,558.669,112.33z"/>
			<path style="fill:none;stroke:#263238;stroke-linecap:round;stroke-linejoin:round;stroke-miterlimit:10;" d="M559.985,134.932
				c0.16,0.904-0.114,1.707-0.611,1.795c-0.497,0.088-1.029-0.574-1.189-1.477c-0.16-0.904,0.114-1.707,0.611-1.795
				C559.293,133.367,559.825,134.029,559.985,134.932z"/>
			<path style="fill:none;stroke:#263238;stroke-linecap:round;stroke-linejoin:round;stroke-miterlimit:10;" d="M556.344,131.602
				c0,0,2.16-2.326,4.652-0.332"/>
			<path style="fill:none;stroke:#FFFFFF;stroke-linecap:round;stroke-linejoin:round;stroke-miterlimit:10;" d="M561.161,149.877
				c0,0,3.821-1.163,4.984-3.821"/>
		</g>
		<path style="fill:#FFFFFF;stroke:#263238;stroke-linecap:round;stroke-linejoin:round;stroke-miterlimit:10;" d="M605.786,225.003
			c0,0-9.338,41.477-10.206,43.649c-0.869,2.172-4.56,10.858-4.56,10.858l10.206,8.904c0,0,1.52-2.389,2.823-8.035
			c1.303-5.646,1.52-11.075,1.52-11.075s14.767-31.488,17.156-35.831c2.389-4.343,0.651-7.601,0.651-8.686
			S605.786,225.003,605.786,225.003z"/>
		<path style="fill:#92E3A9;stroke:#263238;stroke-linecap:round;stroke-linejoin:round;stroke-miterlimit:10;" d="M599.054,177.663
			c0,0-2.389,7.6-2.172,11.292c0.217,3.692,5.212,25.842,5.212,25.842s-2.606,2.389-1.737,3.257c0.869,0.869,2.172,3.04,2.172,3.04
			s-1.955,1.52,0,3.692c1.954,2.172,1.086,3.257,10.206,3.04c9.121-0.217,11.944-0.652,13.03-2.389
			c1.086-1.737,2.389-3.04,1.303-4.777c-1.086-1.737-1.086-1.737-1.086-1.737s1.086-1.954,0.869-4.343
			c-0.217-2.389-1.737-5.212-1.737-6.298s-0.217-15.853-3.04-27.362c-2.823-11.509-14.767-17.807-16.938-18.024"/>
	</g>
</g>
<g id="Character_3">
	<g>
		<path style="fill:#FFFFFF;stroke:#263238;stroke-linecap:round;stroke-linejoin:round;stroke-miterlimit:10;" d="M471.095,287.128
			c0,0,0.341,13.624,0.341,14.135s-1.703,10.218-0.852,14.816c0.852,4.598,7.664,10.899,7.664,10.899l0.681-41.043L471.095,287.128z
			"/>
		<path style="fill:#92E3A9;stroke:#263238;stroke-linecap:round;stroke-linejoin:round;stroke-miterlimit:10;" d="M491.644,193.204
			c0,0-19.983,24.354-20.607,27.06c-0.624,2.706-5.828,68.691-5.828,69.315c0,0.624,8.118,3.747,11.448,3.747
			c3.33,0,4.788,0,4.788,0s-5.62-45.377-3.122-62.238c2.498-16.86,8.534-21.648,13.114-28.101
			C496.016,196.534,496.016,191.538,491.644,193.204z"/>
		<g>
			<path style="fill:#263238;stroke:#263238;stroke-linecap:round;stroke-linejoin:round;stroke-miterlimit:10;" d="
				M492.685,441.739c0,0-5.204,7.493-8.118,9.159c-2.914,1.665-12.489,5.62-12.905,6.661s-0.416,3.539,0.416,3.747
				c0.833,0.208,15.195-0.208,23.938-0.208c8.742,0,14.571,0.416,15.611-0.624c1.041-1.041,0.208-14.571-0.833-17.277
				c-1.041-2.706-1.041-2.706-1.041-2.706l-15.612-0.416L492.685,441.739z"/>
			<path style="fill:#FFFFFF;stroke:#263238;stroke-linecap:round;stroke-linejoin:round;stroke-miterlimit:10;" d="
				M511.975,459.224h-40.583c-0.016,0.979,0.179,1.955,0.686,2.081c0.833,0.208,15.195-0.208,23.938-0.208
				c8.742,0,14.571,0.416,15.611-0.624C511.784,460.316,511.898,459.871,511.975,459.224z"/>
		</g>
		<path style="fill:#FFFFFF;stroke:#263238;stroke-linecap:round;stroke-linejoin:round;stroke-miterlimit:10;" d="M472.702,284.791
			l2.706,12.697c0,0-0.416,33.096,2.914,47.459c3.331,14.363,3.331,28.309,3.331,28.309s4.579,22.689,6.245,29.141
			c1.665,6.453,3.539,33.721,3.539,33.721s-1.665,1.249-1.457,2.082c0.208,0.833,0.833,6.036,0.833,6.036s0.833,0,7.494,0.625
			c6.661,0.625,10.199,0.208,10.199,0.208l2.29-1.873c0,0,0.208-2.914,0-6.661c-0.208-3.747-1.457-6.661-1.457-9.159
			c0-2.498-1.457-57.451-1.457-57.451l0.625-86.176l-36.427-2.081L472.702,284.791z"/>
		<g>
			<path style="fill:#263238;stroke:#263238;stroke-linecap:round;stroke-linejoin:round;stroke-miterlimit:10;" d="
				M513.084,441.323c0,0-1.873,4.579-3.747,7.077c-1.873,2.498-9.575,6.869-12.697,8.534c-3.122,1.665-3.122,5.204-3.122,5.204
				s7.077,0.208,30.391-0.625l9.991-0.416c0,0,0.208-2.706-0.208-5.828c-0.416-3.122-0.833-11.032-0.833-11.032L513.084,441.323z"/>
			<path style="fill:#FFFFFF;stroke:#263238;stroke-linecap:round;stroke-linejoin:round;stroke-miterlimit:10;" d="
				M523.908,461.514l9.991-0.416c0,0,0.107-1.412,0.011-3.37l-39.843,2.029c-0.549,1.27-0.55,2.381-0.55,2.381
				S500.595,462.346,523.908,461.514z"/>
		</g>
		<path style="fill:#FFFFFF;stroke:#263238;stroke-linecap:round;stroke-linejoin:round;stroke-miterlimit:10;" d="M486.024,299.57
			l7.91,7.702c0,0,3.122,29.974,6.245,47.667c3.122,17.693,11.24,63.279,11.24,67.025s1.665,13.322,1.665,13.322
			s-0.624,0.208-0.833,1.665c-0.208,1.457-0.208,7.077-0.208,7.077s5.204,2.498,9.783,2.914c4.579,0.416,11.657-0.208,11.657-0.208
			s0.833-4.788,0.833-6.453s-0.625-8.951-0.208-11.865c0.416-2.914,3.331-17.693,2.498-33.929s-5.828-41.423-5.828-41.423
			l1.665-36.635c0,0,3.122-9.159,2.081-20.399c-1.041-11.24-3.539-15.611-3.539-15.611l-48.708,0.208"/>
		<path style="fill:#263238;stroke:#263238;stroke-linecap:round;stroke-linejoin:round;stroke-miterlimit:10;" d="M491.644,193.204
			c0,0-16.652,20.607-18.318,29.766c-1.665,9.159-3.955,60.989-3.955,63.071c0,2.082,3.33,2.914,7.285,3.539
			c3.955,0.624,10.199,1.249,17.069,1.041c6.869-0.208,13.946-2.498,14.987-3.747c1.041-1.249-1.041-38.092,2.498-58.283
			s7.077-31.015,4.996-34.97C514.125,189.665,498.722,189.041,491.644,193.204z"/>
		<path style="fill:#92E3A9;stroke:#263238;stroke-linecap:round;stroke-linejoin:round;stroke-miterlimit:10;" d="M508.505,192.163
			c0,0-12.489,21.856-14.779,37.259s-0.625,66.817-0.625,66.817s0,2.081,9.575,1.873c9.575-0.208,22.481-2.706,26.019-4.579
			c3.539-1.873,7.494-3.331,7.702-4.371c0.208-1.041-1.873-4.788-1.873-7.91c0-3.122-1.457-16.028-1.457-16.028
			s-0.416-56.826-3.539-64.944C526.406,192.163,514.125,189.873,508.505,192.163z"/>
		<g>
			<path style="fill:#FFFFFF;stroke:#263238;stroke-linecap:round;stroke-linejoin:round;stroke-miterlimit:10;" d="
				M478.114,153.238c0,0-1.665,6.661-1.041,8.743c0.624,2.081,0.833,4.371,0.624,5.204c-0.208,0.833-4.996,6.245-3.955,7.285
				s3.539,2.706,3.539,2.706s1.041,11.032,2.914,11.657s8.742-0.624,8.742-0.624s2.29,8.534,2.29,9.991
				c0,1.457-7.077,17.069-3.122,15.82c3.955-1.249,19.775-24.146,19.775-24.146s-0.208-29.35-4.787-36.843
				C498.513,145.536,484.775,146.785,478.114,153.238z"/>
			<path style="fill:#263238;" d="M482.902,167.08c0,1.092-0.419,1.977-0.937,1.977s-0.937-0.885-0.937-1.977
				c0-1.092,0.419-1.977,0.937-1.977S482.902,165.988,482.902,167.08z"/>
			<path style="fill:none;stroke:#263238;stroke-linecap:round;stroke-linejoin:round;stroke-miterlimit:10;" d="M479.78,162.813
				c0,0,2.498-2.082,4.371,0.624"/>
			<path style="fill:none;stroke:#263238;stroke-linecap:round;stroke-linejoin:round;stroke-miterlimit:10;" d="M480.196,178.841
				c0,0,3.539-0.208,6.036-2.081"/>
		</g>
		<path style="fill:#263238;stroke:#263238;stroke-linecap:round;stroke-linejoin:round;stroke-miterlimit:10;" d="M485.608,138.043
			c0,0-10.2,3.955-11.24,7.702c-1.041,3.747-1.873,8.118-1.873,8.118l9.159,1.873l7.91,0.624c0,0-0.208,1.873,2.081,6.245
			c2.29,4.371,3.331,7.077,3.331,7.077s-0.625,12.281-1.249,15.82c-0.625,3.539-2.082,7.702-2.082,7.702s5.204,1.041,14.779,2.082
			c9.575,1.041,21.44-1.249,21.44-1.249s2.498-4.163,2.29-12.489c-0.208-8.326-4.163-20.191-4.579-24.978
			c-0.416-4.788,0.833-8.118-6.661-13.946C511.419,136.794,498.097,134.712,485.608,138.043z"/>
		<g>
			<g>
				<path style="fill:#FFFFFF;stroke:#263238;stroke-linecap:round;stroke-linejoin:round;stroke-miterlimit:10;" d="
					M467.169,261.614c-0.801,0-1.404-0.085-1.57-0.112l0.468-2.963c0.989,0.15,3.262,0.145,3.95-0.836
					c0.941-1.344,0.206-8.775-0.75-10.036c-0.358-0.417-2.071-0.416-3.301-0.132l-0.685-2.921c0.74-0.174,4.516-0.938,6.27,1.108
					c1.634,1.906,2.803,11.014,0.923,13.701C471.181,261.271,468.776,261.614,467.169,261.614z"/>
			</g>
			
				<rect x="449.389" y="241.912" style="fill:#FFFFFF;stroke:#263238;stroke-linecap:round;stroke-linejoin:round;stroke-miterlimit:10;" width="17.901" height="23.313"/>
		</g>
		<g>
			<path style="fill:#92E3A9;stroke:#263238;stroke-linecap:round;stroke-linejoin:round;stroke-miterlimit:10;" d="
				M514.125,205.277c0,0-3.539,7.91-3.747,11.865c-0.208,3.955,4.371,30.807,4.371,30.807s-14.987,3.747-19.15,3.747
				c-4.163,0-6.869-0.416-6.869-0.416s-5.62-3.747-7.285-4.788s-2.914-0.416-5.828-2.706c-2.914-2.29-5.204-2.498-5.412-1.249
				c-0.208,1.249-0.208,2.081,1.873,3.122c2.082,1.041,3.747,2.498,3.747,2.498s-4.996,1.041-6.453,1.249
				c-1.457,0.208-1.873,2.29-1.041,3.33c0.833,1.041,2.29,2.498,2.29,2.498s-0.208,4.996,2.498,6.036
				c2.706,1.041,10.199,0.833,10.199,0.833s7.91,0.624,9.159,0.624c1.249,0,17.069,3.955,28.309,3.955s14.571,0.625,15.195-1.873
				c0.625-2.498-0.416-39.341-2.498-50.581c-2.082-11.24-6.869-17.485-10.2-17.901"/>
			<path style="fill:#FFFFFF;stroke:#263238;stroke-linecap:round;stroke-linejoin:round;stroke-miterlimit:10;" d="
				M502.522,250.702c-2.879,0.566-5.518,0.993-6.923,0.993c-4.163,0-6.869-0.416-6.869-0.416s-5.62-3.747-7.285-4.788
				c-1.665-1.041-2.914-0.416-5.828-2.706c-2.914-2.29-5.204-2.498-5.412-1.249c-0.208,1.249-0.208,2.081,1.873,3.122
				c2.082,1.041,3.747,2.498,3.747,2.498s-4.996,1.041-6.453,1.249c-1.457,0.208-1.873,2.29-1.041,3.33
				c0.833,1.041,2.29,2.498,2.29,2.498s-0.208,4.996,2.498,6.036s10.2,0.833,10.2,0.833s7.91,0.624,9.159,0.624
				c0.658,0,5.363,1.098,11.311,2.137C501.643,259.819,501.924,254.351,502.522,250.702z"/>
		</g>
	</g>
</g>
<g id="Character_2">
	<g>
		<g>
			<g>
				<path style="fill:#FFFFFF;stroke:#263238;stroke-linecap:round;stroke-linejoin:round;stroke-miterlimit:10;" d="
					M264.595,446.369c0,0-0.997,6.378-3.986,12.756c-2.99,6.378-3.189,8.77,3.588,9.766c6.777,0.997,10.165-0.598,11.56-4.186
					c1.395-3.588,1.993-12.158,2.392-14.151C278.547,448.562,273.165,442.383,264.595,446.369z"/>
				<path style="fill:#FFFFFF;stroke:#263238;stroke-linecap:round;stroke-linejoin:round;stroke-miterlimit:10;" d="
					M275.757,461.717c-1.395,2.591-3.189,5.78-10.364,5.182c-4.077-0.34-5.77-2.094-6.475-3.547
					c-0.919,3.301,0.275,4.804,5.279,5.54c6.777,0.997,10.165-0.598,11.56-4.186c0.494-1.271,0.887-3.171,1.208-5.18
					C276.599,460.175,276.19,460.91,275.757,461.717z"/>
			</g>
			<g>
				<path style="fill:#FFFFFF;stroke:#263238;stroke-linecap:round;stroke-linejoin:round;stroke-miterlimit:10;" d="
					M321.001,444.576c0,0,4.186,3.986,10.564,6.777c6.378,2.79,10.962,4.385,10.962,5.78c0,1.395-1.395,3.986-1.395,3.986
					s-6.777,1.993-13.553,1.993s-12.357-0.598-17.34-0.797c-4.983-0.199-10.763,0.399-11.162-3.189
					c-0.399-3.588,0.399-10.364,0.399-10.364S317.014,443.38,321.001,444.576z"/>
				<path style="fill:#FFFFFF;stroke:#263238;stroke-linecap:round;stroke-linejoin:round;stroke-miterlimit:10;" d="
					M341.132,461.119c0,0,0.349-0.648,0.698-1.47c-2.691,0.473-6.278,0.972-9.866,1.071c-7.175,0.199-9.766-0.797-17.938-1.794
					c-6.149-0.75-12.296-0.259-14.963,0.031c0.005,0.055,0.009,0.115,0.015,0.169c0.399,3.588,6.179,2.99,11.162,3.189
					c4.983,0.199,10.564,0.797,17.34,0.797S341.132,461.119,341.132,461.119z"/>
			</g>
			<path style="fill:#263238;stroke:#263238;stroke-linecap:round;stroke-linejoin:round;stroke-miterlimit:10;" d="M322.207,288.28
				c0,0,1.025,30.148-0.82,56.809s-4.307,65.833-3.281,71.371c1.025,5.537,1.846,23.38,1.846,23.38l1.846,2.256l1.025,3.692
				c0,0-1.025,1.025-7.383,2.871c-6.358,1.846-15.587,2.256-15.587,2.256s-0.41-6.153-0.41-7.793c0-1.641,0.41-5.332,0.41-5.332
				s-3.487-43.274-2.871-52.092c0.615-8.819-0.615-44.094-0.615-44.094l-1.025-12.715c0,0-8.204,33.019-8.614,37.121
				c-0.41,4.102-6.153,45.94-6.153,48.401c0,2.461-2.461,25.841-2.461,25.841s1.436,2.256,1.641,4.512
				c0.205,2.256-1.436,7.999-1.436,7.999s-3.076-2.051-5.947-2.256c-2.871-0.205-8.409-0.615-8.409-0.615
				s-1.641-11.895-1.641-14.356c0-2.461,0-12.716,0-12.716s-0.82-29.328,0.615-40.608c1.436-11.28,0.615-46.145-0.205-60.911
				c-0.82-14.766-2.871-27.892-1.436-31.173c1.436-3.281,2.256-7.383,2.256-7.383s14.766,3.281,31.789,4.307
				c17.022,1.025,25.636-2.051,25.636-2.051L322.207,288.28z"/>
			
				<line style="fill:none;stroke:#FFFFFF;stroke-linecap:round;stroke-linejoin:round;stroke-miterlimit:10;" x1="295.341" y1="328.888" x2="299.874" y2="315.619"/>
		</g>
		<path style="fill:#FFFFFF;stroke:#263238;stroke-linecap:round;stroke-linejoin:round;stroke-miterlimit:10;" d="M294.975,293.75
			c0,0,3.668,0.386,11.583-0.772c7.915-1.158,11.197-2.896,11.197-2.896s-5.212-100.577-5.212-101.543c0-0.965,0-5.502-5.405-6.467
			s-12.548,1.351-14.092,7.336C291.5,195.393,294.975,293.75,294.975,293.75z"/>
		<path style="fill:#FFFFFF;stroke:#263238;stroke-linecap:round;stroke-linejoin:round;stroke-miterlimit:10;" d="M317.561,298.963
			c0,0-0.579,5.984,0,6.37c0.579,0.386,6.177-1.737,9.845-3.282c3.668-1.544,2.451-0.935,3.638-4.425
			c1.188-3.49,0.802-3.49-2.866-2.525C324.511,296.067,317.561,298.963,317.561,298.963z"/>
		<path style="fill:#92E3A9;stroke:#263238;stroke-linecap:round;stroke-linejoin:round;stroke-miterlimit:10;" d="M309.905,200.561
			l4.317,58.21l2.233,41.982c0,0,0.744,1.34,1.935,1.042c1.191-0.298,11.463-2.68,12.654-4.168c1.191-1.489,1.638-5.359,1.638-5.955
			c0-0.595-3.126-37.218-3.126-37.218l8.039-10.719c0,0-6.104-33.497-7.593-40.196c-1.489-6.699-1.487-10.268-3.869-13.245
			c-2.382-2.978-16.08-9.681-16.08-9.681L309.905,200.561z"/>
		<path style="fill:#FFFFFF;stroke:#263238;stroke-linecap:round;stroke-linejoin:round;stroke-miterlimit:10;" d="M308.267,177.039
			c0,0,5.508,5.806,5.359,8.784c-0.149,2.977-3.722,14.738-3.722,14.738l-2.233-17.269
			C307.672,183.292,306.481,178.974,308.267,177.039z"/>
		<g>
			<path style="fill:#FFFFFF;stroke:#263238;stroke-linecap:round;stroke-linejoin:round;stroke-miterlimit:10;" d="
				M290.124,164.641l-0.466,12.175c0,0,4.02,9.975,6.55,12.952c2.531,2.977,7.146,8.039,7.146,8.039l5.062-10.57l0.149-5.806
				l2.233-5.508c0,0-4.913-0.893-9.677-4.615c-4.764-3.722-9.677-8.188-10.124-8.337
				C290.551,162.821,290.124,164.641,290.124,164.641z"/>
			<path style="fill:#263238;stroke:#263238;stroke-linecap:round;stroke-linejoin:round;stroke-miterlimit:10;" d="
				M293.118,168.951c0,0,1.29,4.731,9.462,10.322c2.327,1.592,4.305,2.531,5.961,3.079l0.024-0.922l2.233-5.508
				c0,0-4.913-0.893-9.677-4.615c-1.208-0.944-2.425-1.935-3.577-2.892l-1.559-0.468L293.118,168.951z"/>
		</g>
		<g>
			<path style="fill:#FFFFFF;stroke:#263238;stroke-linecap:round;stroke-linejoin:round;stroke-miterlimit:10;" d="
				M323.122,138.599c0,0-0.535,12.486-0.892,16.766c-0.357,4.281-0.535,8.026-2.497,11.951c-1.962,3.924-4.103,9.988-7.491,10.524
				c-3.389,0.535-8.383,0.178-12.486-2.319c-4.102-2.497-9.453-9.453-9.632-10.88c-0.178-1.427-0.535-2.319-0.535-2.319
				s-2.14-12.842-2.14-18.55s0.535-10.523,9.632-13.734C306.177,126.827,323.122,138.599,323.122,138.599z"/>
			<path style="fill:#263238;stroke:#263238;stroke-linecap:round;stroke-linejoin:round;stroke-miterlimit:10;" d="
				M293.335,138.599c0,0,5.529,1.427,2.676,3.924c-2.854,2.497-5.529,5.351-5.529,5.351s0.892,3.567,0.535,4.994
				c-0.357,1.427-2.14,2.497-3.389,1.07c-1.249-1.427-2.319-2.497-2.319-2.497s-3.389-10.702-4.102-13.734
				c-0.714-3.032-1.427-6.243,3.032-9.275c4.459-3.032,5.351-3.389,5.351-3.389s7.491-4.994,17.836-4.102
				c10.345,0.892,14.983,6.778,14.983,6.778s8.205-2.14,7.67,3.746c-0.535,5.886-6.421,9.81-9.632,9.453
				c-3.211-0.357-20.155-8.918-23.544-7.491C293.513,134.854,291.016,138.064,293.335,138.599z"/>
			<path style="fill:none;stroke:#263238;stroke-linecap:round;stroke-linejoin:round;stroke-miterlimit:10;" d="M313.847,151.798
				c0,0,2.497,8.026,1.784,8.74c-0.713,0.714-3.567,1.249-3.567,1.249"/>
			<path style="fill:none;stroke:#263238;stroke-linecap:round;stroke-linejoin:round;stroke-miterlimit:10;" d="M315.452,165.176
				c0,0-5.708,1.605-9.988-1.07"/>
			<g>
				<path style="fill:none;stroke:#263238;stroke-linecap:round;stroke-linejoin:round;stroke-miterlimit:10;" d="M311.558,146.804
					c0,0-7.521-0.713-11.445-0.713c-3.924,0-5.351-0.357-5.529,0.713s-0.535,6.778,2.497,8.74c3.032,1.962,8.562,1.07,10.88,0.535
					c2.319-0.535,3.032-4.459,3.211-5.708C311.349,149.123,311.558,146.804,311.558,146.804z"/>
				<path style="fill:none;stroke:#263238;stroke-linecap:round;stroke-linejoin:round;stroke-miterlimit:10;" d="M313.768,146.823
					c0,0,5.971-0.38,9.087-0.219c3.115,0.16,4.248-0.125,4.39,0.913s0.425,6.549-1.983,8.314c-2.407,1.765-6.797,0.68-8.638,0.07
					c-1.841-0.61-2.407-4.418-2.549-5.628C313.934,149.064,313.768,146.823,313.768,146.823z"/>
				
					<line style="fill:none;stroke:#263238;stroke-linecap:round;stroke-linejoin:round;stroke-miterlimit:10;" x1="294.583" y1="146.804" x2="285.308" y2="151.441"/>
				
					<line style="fill:none;stroke:#263238;stroke-linecap:round;stroke-linejoin:round;stroke-miterlimit:10;" x1="311.558" y1="146.804" x2="313.956" y2="146.804"/>
			</g>
			<path style="fill:#FFFFFF;stroke:#263238;stroke-linecap:round;stroke-linejoin:round;stroke-miterlimit:10;" d="
				M290.481,155.901c0,0-4.102-5.173-6.956-4.459c-2.854,0.714-0.357,8.205,1.962,9.453c2.319,1.249,4.816-0.357,4.816-0.357"/>
			<path style="fill:#263238;" d="M304.843,151.581c0,1.028-0.433,1.861-0.968,1.861c-0.534,0-0.968-0.833-0.968-1.861
				s0.433-1.861,0.968-1.861C304.41,149.721,304.843,150.554,304.843,151.581z"/>
			<ellipse style="fill:#263238;" cx="318.167" cy="151.581" rx="0.968" ry="1.861"/>
			<path style="fill:none;stroke:#263238;stroke-linecap:round;stroke-linejoin:round;stroke-miterlimit:10;" d="M299.632,144.956
				c0,0,4.027-1.271,9.081,0.298"/>
			<path style="fill:none;stroke:#263238;stroke-linecap:round;stroke-linejoin:round;stroke-miterlimit:10;" d="M316.009,145.403
				c0,0,2.084-1.191,5.508-0.596"/>
		</g>
		<path style="fill:#FFFFFF;stroke:#263238;stroke-linecap:round;stroke-linejoin:round;stroke-miterlimit:10;" d="M299.781,303.209
			l0.213,3.668c0,0-8.494,1.737-20.27-0.965c-11.776-2.703-22.393-10.038-23.552-11.583s0.965-8.108,0.965-8.108
			s-1.544-0.386,1.158,0.579c2.703,0.965,13.32,10.231,27.799,12.741C300.573,302.052,299.955,301.086,299.781,303.209z"/>
		<path style="fill:#92E3A9;stroke:#263238;stroke-linecap:round;stroke-linejoin:round;stroke-miterlimit:10;" d="M288.765,173.094
			c0,0,7.295,10.123,10.719,14.738c3.424,4.615,2.531,10.272,2.084,11.761c-0.447,1.489-1.042,4.02-1.042,4.02v94.088
			c0,0,1.34,5.062-0.744,5.508c-2.084,0.447-17.269-0.298-28.435-6.104c-11.165-5.806-15.036-9.826-15.036-9.826l2.829-22.927
			l1.191-12.803l-18.457,0.094c0,0,10.865-52.2,12.055-55.029c1.191-2.829,30.519-17.716,30.519-17.716
			S284.894,174.061,288.765,173.094z"/>
		
			<line style="fill:none;stroke:#263238;stroke-linecap:round;stroke-linejoin:round;stroke-miterlimit:10;" x1="325.702" y1="215.321" x2="325.458" y2="212.834"/>
		
			<line style="fill:none;stroke:#263238;stroke-linecap:round;stroke-linejoin:round;stroke-miterlimit:10;" x1="329.556" y1="254.453" x2="326.066" y2="219.01"/>
		
			<line style="fill:#FFFFFF;stroke:#263238;stroke-linecap:round;stroke-linejoin:round;stroke-miterlimit:10;" x1="260.33" y1="251.55" x2="263.802" y2="218.302"/>
		<path style="fill:#FFFFFF;stroke:#263238;stroke-linecap:round;stroke-linejoin:round;stroke-miterlimit:10;" d="M255.329,244.661
			c0,0-3.317-0.796-7.829,0c-4.512,0.796-6.635,9.156-6.9,12.075c-0.265,2.919,1.592,7.962,5.042,9.421
			c3.45,1.46,5.175,1.327,8.758-0.796c3.583-2.123,3.185-11.943,3.052-15.26S255.329,244.661,255.329,244.661z"/>
		<path style="fill:#FFFFFF;stroke:#263238;stroke-linecap:round;stroke-linejoin:round;stroke-miterlimit:10;" d="M264.137,235.055
			c0,0,1.327-8.891,1.46-11.81c0.133-2.919-0.265-6.502,0.265-7.696c0.531-1.194,2.388-0.133,3.052,0.663
			c0.663,0.796,1.194,4.91,1.062,6.502c-0.133,1.592,0,2.919,0,2.919s10.217-7.564,11.412-9.156
			c1.194-1.592,3.583-2.787,4.379-1.725c0.796,1.062-0.133,1.991-1.062,2.919c-0.929,0.929-5.706,6.369-6.502,7.033
			c-0.796,0.663-1.062,1.725-1.062,1.725s0.796,0.133,1.99-0.265c1.194-0.398,9.421-4.512,10.218-4.512
			c0.796,0,1.46,1.061,1.194,1.858c-0.265,0.796-10.35,6.9-10.748,7.033c-0.398,0.133-0.796,1.061-0.133,1.194
			c0.664,0.133,8.891-1.194,9.952-0.663c1.061,0.531,0.796,1.725,0.265,2.123c-0.531,0.398-10.35,2.123-10.35,2.123
			s3.185,0.663,4.512,0.929c1.327,0.265,3.583,0.265,3.583,1.062c0,0.796-0.531,1.194-1.46,1.194c-0.929,0-5.44,0-6.9,0
			c-1.46,0-4.379,1.194-6.767,2.256c-2.388,1.062-3.45,1.46-3.45,1.46s-6.502,11.81-8.891,16.056
			c-2.388,4.246-5.971,5.839-9.421,6.104c-3.45,0.265-7.033-5.971-6.369-9.023c0.663-3.052,6.237-9.819,11.146-12.341
			C260.422,240.496,261.881,237.975,264.137,235.055z"/>
		<path style="fill:#FFFFFF;stroke:#263238;stroke-linecap:round;stroke-linejoin:round;stroke-miterlimit:10;" d="M343.242,246.199
			c0,0-3.795-4.933-6.451-5.123c-2.656-0.19-7.4,8.348-7.4,11.953c0,3.605,0.19,10.435,1.708,11.384
			c1.518,0.949,4.364-0.759,6.071-3.036C338.878,259.101,343.242,246.199,343.242,246.199z"/>
		<g>
			<path style="fill:#FFFFFF;stroke:#263238;stroke-linecap:round;stroke-linejoin:round;stroke-miterlimit:10;" d="M386.74,222.796
				c0,0,0.219-4.058-0.548-3.839c-0.768,0.219-1.316,0.768-1.097,2.632c0.219,1.864-0.658,5.922-0.658,5.922L386.74,222.796z"/>
			<path style="fill:#FFFFFF;stroke:#263238;stroke-linecap:round;stroke-linejoin:round;stroke-miterlimit:10;" d="M339.362,244.84
				c0,0-6.032,10.967-5.813,13.928c0.219,2.961,2.742,3.948,7.348,2.632c4.606-1.316,36.74-18.864,38.276-20.289
				c1.535-1.426,6.8-12.393,8.555-14.367c1.755-1.974,1.535-6.909,1.535-7.787c0-0.877-1.535-0.548-1.535,0.548
				c0,1.097-3.729,8.225-4.277,8.445c-0.548,0.219-5.484,2.632-5.484,2.632s2.523-4.935,3.4-6.58
				c0.877-1.645,1.645-3.51-0.219-2.852c-1.864,0.658-4.826,5.703-5.922,8.445c-1.097,2.742-2.961,6.361-2.632,8.116
				c0.329,1.755,0.329,1.755,0.329,1.755s-11.077,2.522-17.657,2.852C348.684,242.647,339.691,243.744,339.362,244.84z"/>
			<path style="fill:#FFFFFF;stroke:#263238;stroke-linecap:round;stroke-linejoin:round;stroke-miterlimit:10;" d="
				M383.779,233.215c0,0,5.813-6.69,6.58-7.896c0.768-1.206,1.755-3.071,1.535-4.497c-0.219-1.426-1.206,0.329-1.974,1.535
				c-0.768,1.206-2.303,2.303-3.181,4.277c-0.877,1.974-2.961,2.522-2.961,2.522V233.215z"/>
			<path style="fill:#FFFFFF;stroke:#263238;stroke-linecap:round;stroke-linejoin:round;stroke-miterlimit:10;" d="
				M381.695,237.273c0,0,3.29-6.8,4.167-8.664c0.877-1.865,1.097-5.045,1.206-7.019c0.11-1.974-1.535-0.658-1.755,0.987
				c-0.219,1.645-1.535,6.58-1.535,6.58s-7.129,5.045-7.129,6.361c0,1.316,0.219,3.071,0.219,3.071"/>
		</g>
	</g>
</g>
<g id="Chair_1">
	<g>
		
			<rect x="147.482" y="340.497" style="fill:#263238;stroke:#263238;stroke-linecap:round;stroke-linejoin:round;stroke-miterlimit:10;" width="10.674" height="18.945"/>
		<path style="fill:#949494;stroke:#263238;stroke-linecap:round;stroke-linejoin:round;stroke-miterlimit:10;" d="M162.948,346.259
			h-21.903c-8.633,0-15.632-6.999-15.632-15.632v-50.071c0-8.633,6.999-15.632,15.632-15.632h21.903
			c8.633,0,15.632,6.999,15.632,15.632v50.071C178.58,339.26,171.581,346.259,162.948,346.259z"/>
		<g>
			<path style="fill:#263238;stroke:#263238;stroke-linecap:round;stroke-linejoin:round;stroke-miterlimit:10;" d="M136.06,458.726
				c0-2.493-2.021-4.515-4.515-4.515s-4.515,2.021-4.515,4.515c0,2.493,2.021,4.515,4.515,4.515S136.06,461.219,136.06,458.726z"/>
			<path style="fill:#263238;stroke:#263238;stroke-linecap:round;stroke-linejoin:round;stroke-miterlimit:10;" d="M224.27,458.726
				c0-2.493-2.021-4.515-4.515-4.515c-2.493,0-4.515,2.021-4.515,4.515c0,2.493,2.021,4.515,4.515,4.515
				C222.248,463.241,224.27,461.219,224.27,458.726z"/>
			<path style="fill:#263238;stroke:#263238;stroke-linecap:round;stroke-linejoin:round;stroke-miterlimit:10;" d="
				M177.843,458.726c0-2.493-0.939-4.515-2.098-4.515c-1.159,0-2.098,2.021-2.098,4.515c0,2.493,0.939,4.515,2.098,4.515
				C176.904,463.241,177.843,461.219,177.843,458.726z"/>
			<polygon style="fill:#263238;stroke:#263238;stroke-linecap:round;stroke-linejoin:round;stroke-miterlimit:10;" points="
				179.854,434.222 179.854,369.5 170.992,369.5 170.992,434.487 127.256,451.786 127.256,456.134 133.611,456.134 133.611,452.455 
				175.758,443.758 217.904,452.455 217.904,456.134 224.26,456.134 224.26,451.786 			"/>
			<polygon style="fill:#263238;stroke:#263238;stroke-linecap:round;stroke-linejoin:round;stroke-miterlimit:10;" points="
				173.529,456.121 177.962,456.121 178.912,435.111 172.579,435.111 			"/>
		</g>
		
			<rect x="164.144" y="367.033" style="fill:#263238;stroke:#263238;stroke-linecap:round;stroke-linejoin:round;stroke-miterlimit:10;" width="22.535" height="13.38"/>
		<path style="fill:#949494;stroke:#263238;stroke-linecap:round;stroke-linejoin:round;stroke-miterlimit:10;" d="M208.934,371.962
			h-69.159c-3.265,0-5.912-2.647-5.912-5.912v-5.428c0-3.265,2.647-5.912,5.912-5.912h69.159c3.265,0,5.912,2.647,5.912,5.912v5.428
			C214.847,369.315,212.2,371.962,208.934,371.962z"/>
	</g>
</g>
<g id="Character_1">
	<g>
		<g>
			<path style="fill:#FFFFFF;stroke:#263238;stroke-linecap:round;stroke-linejoin:round;stroke-miterlimit:10;" d="
				M273.896,402.505l6.893,10.212l8.17-0.511c0,0,15.574-2.808,17.616-3.319c2.042-0.511,2.808,1.277,1.787,3.319
				c-1.021,2.042-10.467,11.234-15.063,14.042c-4.595,2.808-17.616,7.404-18.893,7.659c-1.277,0.255-2.808-2.298-5.617-10.212
				c-2.808-7.914-7.914-15.829-7.914-15.829L273.896,402.505z"/>
			<g>
				<path style="fill:#FFFFFF;stroke:#263238;stroke-linecap:round;stroke-linejoin:round;stroke-miterlimit:10;" d="
					M308.362,412.206c1.021-2.042,0.255-3.83-1.787-3.319c-2.042,0.511-17.616,3.319-17.616,3.319l-8.17,0.511
					c0.255,4.595,1.277,6.893,1.277,6.893s-11.489,2.808-13.276,4.085c2.808,7.915,4.34,10.468,5.617,10.212
					c1.277-0.255,14.297-4.851,18.893-7.659C297.895,423.44,307.341,414.249,308.362,412.206z"/>
				<path style="fill:#FFFFFF;stroke:#263238;stroke-linecap:round;stroke-linejoin:round;stroke-miterlimit:10;" d="
					M308.362,412.206c0.433-0.866,0.527-1.673,0.357-2.292c-4.665,3.928-14.435,11.987-18.352,13.945
					c-3.723,1.861-13.405,5.267-18.676,7.076c1.129,2.294,1.967,3.121,2.716,2.971c1.277-0.255,14.297-4.851,18.893-7.659
					C297.895,423.44,307.341,414.249,308.362,412.206z"/>
			</g>
		</g>
		<path style="fill:#92E3A9;stroke:#263238;stroke-linecap:round;stroke-linejoin:round;stroke-miterlimit:10;" d="M248.464,318.17
			c0,0,11.239,32.992,17.772,55.23c5.16,17.562,11.744,31.147,11.744,31.147s-5.361,3.064-8.936,4.851
			c-3.574,1.787-9.702,4.085-9.702,4.085s-4.851-7.659-9.957-17.616c-5.106-9.957-13.787-34.211-17.872-41.615
			s-9.702-18.637-9.702-18.637s-2.553-12.765,7.149-16.084C238.663,316.211,245.656,314.595,248.464,318.17z"/>
		<path style="fill:#FFFFFF;stroke:#263238;stroke-linecap:round;stroke-linejoin:round;stroke-miterlimit:10;" d="M209.723,312.647
			c0,0,4.394,2.93,4.516,3.418c0.122,0.488-0.122,0.854-1.099,1.221c-0.977,0.366-5.493,1.221-5.493,1.221L209.723,312.647z"/>
		<g>
			<path style="fill:#FFFFFF;stroke:#263238;stroke-linecap:round;stroke-linejoin:round;stroke-miterlimit:10;" d="
				M226.052,423.472c0,0-1.764,10.944-2.954,14.937c-1.19,3.993-4.481,11.258-3.446,13.066c1.035,1.808,6.481,3.656,9.262,3.886
				c2.78,0.229,6.335,4.775,11.509,6.655c5.174,1.88,11.999,1.366,11.842,0.007c-0.157-1.359-15.306-18.057-16.05-22.102
				c-0.743-4.045,1.919-16.745,1.919-16.745L226.052,423.472z"/>
			<g>
				<path style="fill:#FFFFFF;stroke:#263238;stroke-linecap:round;stroke-linejoin:round;stroke-miterlimit:10;" d="
					M234.324,442.618c-0.418,1.15-0.418,1.15-0.418,1.15s-7.007-0.775-11.818-2.379c-1.409,3.916-3.247,8.67-2.436,10.085
					c1.035,1.808,6.481,3.656,9.262,3.886c2.78,0.229,6.335,4.775,11.509,6.655c5.174,1.88,11.999,1.366,11.842,0.007
					c-0.157-1.359-15.306-18.057-16.049-22.102C236.215,439.921,234.742,441.468,234.324,442.618z"/>
				<path style="fill:#FFFFFF;stroke:#263238;stroke-linecap:round;stroke-linejoin:round;stroke-miterlimit:10;" d="
					M240.109,459.298c-4.087-2.006-7.788-5.433-13.234-7.281c-3.548-1.204-6.01-2.18-7.301-2.716
					c-0.169,0.965-0.175,1.732,0.078,2.174c1.035,1.808,6.481,3.656,9.262,3.886c2.78,0.229,6.335,4.775,11.509,6.655
					c4.933,1.792,11.353,1.407,11.805,0.189C248.82,461.7,242.921,460.678,240.109,459.298z"/>
			</g>
		</g>
		<path style="fill:#92E3A9;stroke:#263238;stroke-linecap:round;stroke-linejoin:round;stroke-miterlimit:10;" d="M223.345,341.231
			c0,0,20.169,2.298,21.701,12.51c1.532,10.212-2.043,73.784-2.043,73.784s-4.851,0.255-8.936-0.511s-10.978-2.298-10.978-2.298
			s-1.021-21.701-2.298-30.382c-1.277-8.68-2.298-33.956-2.298-33.956s-33.701-2.808-36.764-4.851
			C178.666,353.486,223.345,341.231,223.345,341.231z"/>
		<g>
			<path style="fill:#92E3A9;stroke:#263238;stroke-linecap:round;stroke-linejoin:round;stroke-miterlimit:10;" d="
				M245.301,336.125c0,0-45.189,17.616-56.678,21.446s-23.999,2.808-31.913,0.255c-7.915-2.553-11.797-12.715-11.797-12.715
				s-1.99-2.348-0.968-4.646c1.021-2.298,17.361-16.85,27.318-19.403c9.957-2.553,27.966-1.437,27.966-1.437
				s38.924-9.03,44.285-8.264c5.361,0.766,9.622,19.846,10.388,22.399"/>
			<path style="fill:none;stroke:#263238;stroke-linecap:round;stroke-linejoin:round;stroke-miterlimit:10;" d="M156.455,347.103
				c0,0,3.574-14.042,13.021-19.914"/>
			<path style="fill:none;stroke:#263238;stroke-linecap:round;stroke-linejoin:round;stroke-miterlimit:10;" d="M154.412,337.657
				c0,0,3.83-5.872,8.936-7.148"/>
		</g>
		<g>
			<path style="fill:#263238;stroke:#263238;stroke-linecap:round;stroke-linejoin:round;stroke-miterlimit:10;" d="M182.516,232.51
				c0,0,3.969,0.627,6.476,4.805c2.507,4.178,6.685,19.846,6.685,19.846s6.685,19.428,5.432,24.024
				c-1.253,4.596-6.267,11.281-6.267,11.281s0.418,15.041,1.671,17.966c1.253,2.925,2.716,9.192,2.716,9.192
				s-3.551,2.507-15.25,4.178c-11.699,1.671-21.309,2.507-25.278,5.641c-3.969,3.134-12.743,15.041-13.788,15.668
				c-1.044,0.627-2.716,1.88-3.551,0.209c-0.836-1.671-2.298-5.223-0.418-12.743c1.88-7.521,5.223-37.186,6.476-51.182
				c1.254-13.997-1.462-28.203,0.209-38.021c1.671-9.819,16.504-15.668,19.846-16.295
				C170.817,226.452,182.516,232.51,182.516,232.51z"/>
			<g>
				<path style="fill:none;stroke:#FFFFFF;stroke-linecap:round;stroke-linejoin:round;stroke-miterlimit:10;" d="M147.264,332.551
					c0,0,6.383-7.404,9.446-8.68s24.509-1.276,24.509-1.276"/>
				<path style="fill:none;stroke:#FFFFFF;stroke-linecap:round;stroke-linejoin:round;stroke-miterlimit:10;" d="M151.859,323.104
					c0,0,3.574-2.043,6.383-2.553s10.212,0,10.212,0"/>
				<path style="fill:none;stroke:#FFFFFF;stroke-linecap:round;stroke-linejoin:round;stroke-miterlimit:10;" d="M163.092,297.574
					c0,0,9.702-3.319,18.637-11.999"/>
			</g>
		</g>
		<path style="fill:#FFFFFF;stroke:#263238;stroke-linecap:round;stroke-linejoin:round;stroke-miterlimit:10;" d="M186.068,173.18
			c0,0,3.134,6.685,4.178,8.774c1.045,2.089,0.627,5.641,1.462,8.565c0.836,2.925,5.64,4.805,5.64,6.476
			c0,1.671-1.88,5.014-1.88,5.014s-1.045,12.952-2.716,14.415c-1.671,1.462-8.565,1.88-8.565,1.88l-3.551,13.579l3.551,2.089
			c0,0,0.627,12.326,0,16.713c-0.627,4.387-0.209,8.565-6.476,6.894c-6.267-1.671-15.877-18.384-16.713-20.473
			c-0.836-2.089,2.716-11.072-1.462-24.442c-4.178-13.37,5.014-25.487,11.072-31.127
			C176.667,175.896,179.592,172.136,186.068,173.18z"/>
		<path style="fill:#263238;stroke:#263238;stroke-linecap:round;stroke-linejoin:round;stroke-miterlimit:10;" d="M186.068,173.18
			c-0.209-3.76-0.627-5.223-8.356-6.058c-7.73-0.836-24.233-1.462-30.709,10.028c-6.476,11.49-6.476,36.559-6.476,36.559
			s-13.788,12.326-14.832,19.846c-1.045,7.521,3.969,14.624,11.908,17.13c0.15,0.047,0.309,0.084,0.465,0.124
			c0.696-2.999,1.981-6.804,4.338-9.632c4.517-5.42,8.431-4.818,14.153-6.324c5.812-1.529,9.366-1.895,10.212-8.427
			c0.851-6.572,2.095-13.581,1.541-20.238c-0.209-2.507,2.507-6.267,2.507-6.267s6.476,1.671,10.654-9.61
			C185.65,179.03,186.277,176.941,186.068,173.18z"/>
		<path style="fill:#FFFFFF;stroke:#263238;stroke-linecap:round;stroke-linejoin:round;stroke-miterlimit:10;" d="M173.533,203.054
			c0,0-2.089-9.61-7.521-5.85c-5.432,3.76,2.716,14.415,3.969,14.624c1.253,0.209,3.342-1.044,3.342-1.044"/>
		<polygon style="fill:#263238;stroke:#263238;stroke-linecap:round;stroke-linejoin:round;stroke-miterlimit:10;" points="
			184.188,218.304 177.711,217.469 182.307,223.527 		"/>
		<path style="fill:#263238;" d="M191.061,192.914c0.273,1.416-0.012,2.661-0.635,2.781c-0.623,0.12-1.349-0.931-1.622-2.347
			s0.012-2.661,0.635-2.781C190.062,190.447,190.788,191.498,191.061,192.914z"/>
		<g>
			<g>
				<path style="fill:#FFFFFF;stroke:#263238;stroke-linecap:round;stroke-linejoin:round;stroke-miterlimit:10;" d="
					M204.25,306.783c0.815,0,1.427-0.087,1.596-0.114l-0.476-3.013c-1.005,0.152-3.317,0.147-4.016-0.85
					c-0.957-1.367-0.21-8.923,0.762-10.205c0.364-0.424,2.106-0.424,3.357-0.135l0.696-2.97c-0.753-0.177-4.592-0.954-6.375,1.127
					c-1.661,1.938-2.85,11.199-0.938,13.932C200.171,306.435,202.617,306.783,204.25,306.783z"/>
			</g>
			
				<rect x="204.127" y="286.749" transform="matrix(-1 -1.224647e-16 1.224647e-16 -1 426.4566 597.2037)" style="fill:#FFFFFF;stroke:#263238;stroke-linecap:round;stroke-linejoin:round;stroke-miterlimit:10;" width="18.203" height="23.706"/>
		</g>
		<g>
			<path style="fill:#263238;stroke:#263238;stroke-linecap:round;stroke-linejoin:round;stroke-miterlimit:10;" d="M151.438,236.66
				c0,0-9.635-3.011-14.045,15.634c-1.465,6.195-7.41,68.978-6.17,69.416c4.494,1.586,51.905-13.158,51.905-13.158
				s14.676-1.004,15.956-1.308c1.28-0.304,3.291-2.61,3.202-3.905c-0.089-1.295-0.05-3.9-0.05-3.9s2.212-2.536,1.446-4.219
				c-0.766-1.682-2.321-2.227-2.321-2.227l-3.036-0.009l-1.786-0.745c0,0,2.227-2.321,1.863-4.464s-2.179-3.32-2.939-1.751
				c-0.76,1.57-0.902,2.664-2.324,4.062c-1.422,1.398-3.462,3.272-4.438,4.857c-0.976,1.585-3.732,5.676-3.732,5.676l-34.166,1.862
				l5.192-39.372"/>
			<path style="fill:#FFFFFF;stroke:#263238;stroke-linecap:round;stroke-linejoin:round;stroke-miterlimit:10;" d="
				M203.683,295.221c-0.766-1.682-2.321-2.227-2.321-2.227l-3.036-0.009l-1.786-0.745c0,0,2.227-2.321,1.863-4.464
				c-0.363-2.144-2.178-3.32-2.939-1.751c-0.76,1.57-0.902,2.664-2.324,4.062c-1.422,1.398-3.462,3.272-4.438,4.857
				c-0.976,1.585-3.732,5.676-3.732,5.676l-34.166,1.862l2.263-17.157l-19.176-0.432c-1.751,17.962-3.343,36.579-2.669,36.818
				c4.494,1.586,51.905-13.158,51.905-13.158s14.676-1.004,15.956-1.308c1.28-0.304,3.291-2.61,3.202-3.905
				c-0.089-1.295-0.05-3.9-0.05-3.9S204.449,296.903,203.683,295.221z"/>
		</g>
		<g>
			<path style="fill:#FFFFFF;stroke:#263238;stroke-linecap:round;stroke-linejoin:round;stroke-miterlimit:10;" d="
				M202.154,312.382c0,0-3.83,0.766-4.851,2.042c-1.021,1.277-3.574,8.17-2.298,8.425c1.276,0.255,3.83-5.361,3.83-5.361
				S205.984,313.913,202.154,312.382z"/>
			<path style="fill:#FFFFFF;stroke:#263238;stroke-linecap:round;stroke-linejoin:round;stroke-miterlimit:10;" d="
				M203.863,312.403c0,0-1.465-0.122-2.563,0.488c-1.099,0.61-3.418,5.859-3.784,7.324c-0.366,1.465,0,2.93,0.976,2.563
				c0.977-0.366,4.394-5.615,5.371-6.225C204.84,315.943,205.572,312.424,203.863,312.403z"/>
			<path style="fill:#FFFFFF;stroke:#263238;stroke-linecap:round;stroke-linejoin:round;stroke-miterlimit:10;" d="
				M206.549,312.403c0,0-1.221-2.075-2.685,0c-1.465,2.075-3.906,8.422-3.296,8.911c0.61,0.488,2.075-1.098,3.052-2.197
				C204.596,318.018,207.281,315.211,206.549,312.403z"/>
			<path style="fill:#FFFFFF;stroke:#263238;stroke-linecap:round;stroke-linejoin:round;stroke-miterlimit:10;" d="
				M209.723,312.647c0,0-2.197-1.343-3.174-0.244c-0.977,1.099-1.709,6.958-1.465,7.568c0.244,0.61,2.197-0.854,2.563-1.465
				C208.014,317.896,209.723,312.647,209.723,312.647z"/>
		</g>
	</g>
</g>
</svg>
